<svg version="1" xmlns="http://www.w3.org/2000/svg" width="682.667" height="682.667" viewBox="0 0 512.000000 512.000000"><path d="M121 157.7c-12.1 2.1-28.5 8.4-36.3 13.8-2.6 1.8-4.1 1.9-3.1.3.4-.7.3-.8-.5-.4-.6.4-.9 1.1-.6 1.6.7 1.2-2.6 2.9-4.4 2.2-.9-.3-1.1 0-.6.9.5.8.4 1.1-.1.6-.5-.5-.9-1.4-.9-2-.1-.7-.6-1.1-1.3-1-.6.2-.9-.4-.6-1.2.3-.8-.2-2.2-1.1-3.1-.9-.9-1.3-2.4-1-3.2.3-.9.3-1.3-.1-.9s-1.5-.7-2.5-2.3l-1.9-3H48.6c-14.3 0-17.6.3-18.6 1.5s-1.3 21-1.3 94.7c0 89.2.1 93.2 1.8 94.5 1.8 1.2 4.3 1.5 15.5 1.6 2.5 0 3.9.2 3.3.4-.7.3-1.4.3-1.7.1-.5-.4-4.6 4.7-4.6 5.8 0 .4.6 0 1.3-.9.6-.9 2.9-2.5 4.9-3.5l3.7-1.9-1.5 2.2c-1.3 2-1.3 2.4.3 3.6 1.5 1.2 1.6 1.2 1.1-.2-.3-.9-.2-2.2.4-3 .8-1.1.9-1 .4.3-.3 1-.1 1.8.4 1.8.6 0 .5.9-.2 2s-1.6 2-2.1 2c-.4 0-.5-.5-.1-1.2.5-.7.3-.8-.6-.3-.9.6-1.1.4-.5-.5.5-.8.4-1.1-.3-.6-.7.4-1-.1-.7-1.4.4-1.9.3-1.9-2.1-.4-2.6 1.8-3.2 2.9-1 2.1.8-.3 2 .1 2.7.9 1.1 1.3 1 1.5-.2 1.2-.8-.1-1.4.1-1.4.7 0 .5.6.8 1.4.7.7-.2 1.1.1.8.5-.3.5-.1 1.5.4 2.3.8 1.2.9 1.1.7-.4-.2-1 .3-2.1 1.1-2.4.8-.2 1.1 0 .8.5-.4.6 0 1.9.8 2.9 1.2 1.7 1.7 1.2 1.4-1.2 0-.4.5-1.1 1.3-1.6 1-.7.8-.8-.5-.4-1.2.4-1.6.2-1.1-.6.4-.7.3-.8-.4-.4-1.8 1.1-1.4 0 .5-1.5 1.1-1 1.4-1 .9-.2-.4.7-.3 1.3.3 1.3.5 0 1.1-.3 1.4-.8.2-.4.2-.2.1.5-.2.7.1 1.5.6 1.8.6.4 1 1.2 1 1.8 0 .7-.4.6-1-.3-.5-.8-1-1-1-.4 0 .5.5 1.5 1.2 2.2.6.6.8 1.5.4 1.9-.4.4-1.1.1-1.6-.7-.6-.9-1-1-1-.3 0 1.9 2 2.6 3.6 1.2 1.2-1 1.2-1.4.2-2-1-.7-1-.9 0-.9.6 0 1.1-.3 1.1-.8-.1-.4-.1-1.3 0-2 .2-1.8 3.8.6 3.8 2.6 0 1.2-.2 1.2-1.2-.2-.7-.9-1.6-1.6-2-1.6-.4 0-.1.8.6 1.7.8.9.9 1.4.3 1-.8-.4-.9.2-.5 2.1.5 2.5.6 2.5.9.4.2-1.2.8-2 1.3-1.6.6.3 1.3-.3 1.6-1.5.3-1.2 1.2-2.1 1.9-2.1.8 0 1.4-.5 1.4-1 0-.6.5-1 1.1-1 .8 0 .8.4 0 1.3-.8 1-.7 1.7.2 2.7 1 1 .9 1.1-.2.5-1-.6-1.2-.4-.6.5.5.9.4 1.1-.4.6-.6-.4-.9-1.2-.6-1.7.4-.5.2-.9-.3-.9s-1.2.8-1.6 1.7c-.3 1-.9 2.5-1.2 3.3-.4.8.1.6 1-.5 1.2-1.6 1.7-1.7 2.4-.7.7 1.1 1.1 1 1.7-.5.5-1 .7-2.3.6-2.9-.1-.7.6-1.4 1.4-1.8.9-.3 1.3-.2 1 .3-.3.5-.1 1.2.5 1.6.5.3 1-.1 1-.9 0-2.3 2-2.9 3.9-1.2 2.2 2 3.2 2 2.5.1-.4-.8-.1-1.5.6-1.5.6 0 .8-.4.5-1-.3-.6.1-.7 1-.3 1.3.5 1.4.7.3 1.4-1.2.8-.4 1.3 1.4 1 .4 0 .5.6.1 1.5-.3.8-1.1 1.3-1.9 1-.7-.3-1.8.2-2.5 1-1 1.2-1.4 1.2-2.6-.3-.8-1-1.2-1.3-.9-.7.3.7-.4 1-1.8.9-1.7-.2-2.8.5-4 2.9l-1.8 3.1 2-2.4c1.3-1.6 2.1-2 2.6-1.2.9 1.4 2.6 1.4 2.6 0 0-.5-.5-.7-1-.4-.6.3-1 .1-1-.5 0-.7.7-.9 1.6-.6.9.3 1.8.6 2 .6.3 0 .2.5-.1 1.1-.4.6.2.5 1.4-.3 1.2-.7 2.1-1.6 2.1-2.1 0-.4.9-.3 1.9.2 1.4.8 2.2.7 3.2-.6.8-.9.9-1.4.3-1-.8.4-1.1-.8-.9-3.8.1-5.1.5-5.7 4-6.1 2.2-.2 2.4 0 1.4 1.2-.6.8-.7 1.4-.3 1.4.5 0 1.5-.9 2.2-2.1.8-1.2.9-1.8.3-1.4-.6.3-1.1-.1-1.1-.9 0-1.9 1.1-2.1 2.8-.4.8.8 1.2.9 1.2.1 0-.6-.5-1.3-1.2-1.5-.6-.2-.8-1-.4-1.6 1-1.6 2.9-1.5 2 0-.4.7-.3.9.1.5 1.5-1.3 1.4-3.6-.1-3-.9.3-1.4 0-1.2-.7.2-.7-.7-1.3-1.9-1.5-1.2-.1-2 .1-1.8.5.2.4-.2.7-.9.7-.8 0-1.2-.6-.9-1.4.3-.7 0-1.3-.6-1.3s-1.1-.5-1.1-1c0-.6 1-.5 2.3.3 1.8 1.2 2.6 1.2 4.7.1 1.9-1 2.1-1.4.8-1.4-1.8 0-2.5-1.5-1-2.3.4-.2.1-.2-.5-.1-1.7.4-1.6-1.1.1-2.5 1.1-.9 1.5-.9 1.8.1.3.8.6.7 1.1-.4.4-1.3.1-1.6-1.4-1.3-2.1.4-2.7-1.1-.6-1.8.6-.2.3-.2-.8 0-1.1.3-2.6.5-3.2.5-.7.1-1.3.6-1.3 1.1 0 .5.6.7 1.3.4.8-.3 1.4 0 1.4.7 0 2.2-2.5 1.4-3.6-1.1-.7-1.5-.7-2.2-.1-1.8.5.3 1 .1 1-.4 0-.6-.4-1.1-1-1.1-.5 0-1-.5-1-1.1 0-.8.4-.9 1.3 0 .8.6 1.7.8 2.1.4.4-.4.4.1 0 1.2-.5 1.6-.1 1.5 2.2-.7 2.2-2.2 2.6-3 1.6-4s-.8-1.6.8-2.8c1.9-1.5 1.8-1.5-2.6-1.5-4.3 0-4.8-.2-4.9-2.4-.2-2.1-.1-2.2 1.1-.7.7 1 1.5 1.3 1.8.7.4-.5-.4-1.7-1.6-2.5-1.2-.9-1.9-1.6-1.4-1.6s.1-.9-.9-2-1.4-2-.8-2c.5 0 1.5 1 2.2 2.3 1.3 2.4 4.6 3.4 3.7 1.1-.3-.7.2-1.5 1.1-1.8 1.1-.5 1.4-.2.9.9-.3.9-.2 1.3.3 1 .6-.3.9-1.4.8-2.5-.1-1-.5-1.6-1-1.3-.5.3-.7 0-.5-.8.3-.8 1-1.3 1.6-1.2.6.2.9-.4.6-1.1-.3-.8-1.4-1.4-2.4-1.3-1.4.1-1.6.4-.8 1.4.8.9.7 1.3-.2 1.3-.9 0-1 .3-.1 1.4.9 1.1.8 1.5-.5 2-.9.4-1.7.5-1.8.4-.1-.2-.8-1.1-1.6-2.1-.7-1-.9-1.7-.4-1.6 2.3.4 3.3-.2 3.1-2.1-.1-1.1-.7-2.2-1.5-2.5-1-.3-1-1-.2-2.4.8-1.6.6-2.2-.7-3-1.5-.8-1.5-1.1-.3-1.2.8-.1 1.8-.1 2.3 0 .9.1.9-1.3 0-2.2-.3-.4-1.3-.1-2.1.6-1.2.9-1.1.5.2-1.5 1.6-2.5 1.6-2.7-.1-3.7-1.4-.8-1.5-1.1-.3-1.2.8-.1 1.9-.1 2.4 0s.6-.5.3-1.3c-.4-1.1.1-1.3 2.1-1 2.1.3 2.3.2 1.2-.6-1.3-.9-1.3-1 0-1 1.2-.1 1.1-.3-.2-1.1-1-.5-1.8-1.4-1.8-2 0-.5 1.2-.2 2.8.7l2.7 1.6-2.3-1.9c-1.8-1.4-2-2.1-1-3.1.6-.6.8-1.2.2-1.2-.5 0-.2-.5.6-1.1 1.2-.9 1.2-1-.4-.5-1.4.5-1.7.2-1.2-.9.4-1.2.2-1.3-1.3-.6-1 .6-2.1.7-2.5.4-.3-.3-.6-.1-.6.5 0 1.5 1.8 2.4 2.2 1.1.2-.7 1-.4 1.8.7 1.3 1.6 1.3 1.7 0 1.2-1-.4-1.6.1-1.8 1.3-.4 3.9-.6 4.4-2.5 6.4-2 2-2 2-.8-.3.9-1.6.9-2.8.1-4.5-1-2-1-2 .3-.4s1.5 1.6 2.1.1c.8-2 .8-2.5-.1-2.1-.5.1-.8 0-.9-.3 0-.3-.6-1.6-1.3-2.9-1.1-1.9-1.1-2.2 0-1.6.8.6 1.1.4.7-.7-.4-.8-.1-1.5.7-1.5.8 0 1.1.7.7 1.5-.3 1-.1 1.3.6.8 1.3-.8 1.1-4.1-.3-5.3-.4-.5-.5-.3-.2.3.4.7-.3 1.1-1.9 1.1-1.5 0-2.1-.3-1.4-.7.6-.4 1-.9.8-1.1-.1-.3.7-1.7 1.9-3.2 1.2-1.6 2.4-2.3 2.8-1.7.3.5.2 1-.4 1-1.4 0-.9 3.9.6 4.4.7.3 1 1.2.7 2.1-.3.8-.1 1.5.6 1.5.6 0 .8-.5.4-1.2-.5-.8-.1-.9 1.2-.5 1.4.5 1.2.2-.6-1.2-2.5-2-2.5-2-.5-3.6l2-1.5-2 .7c-1.8.6-1.9.5-.6-1.1 1.2-1.5 1.2-1.9-.2-3.3-1.5-1.5-1.5-1.7.1-2.9 1.4-1 1.5-1.4.2-2.9-1.4-1.6-1.3-1.7.8-1.1 1.2.4 2.2.3 2.2-.2 0-1.2-3.2-1.2-4.7.1-.9.6-1.3.6-1.3-.2 0-.6-.6-1.1-1.4-1.1-.8 0-1.8-.5-2.2-1.1-.4-.7 0-.9 1.4-.5 1.5.5 2 .3 1.8-.8-.3-2-1.6-3.3-1.6-1.6 0 .7-.3 1-.7.7-.3-.4.1-1.5 1.1-2.6 1.5-1.6 1.5-1.9.1-2.4-.9-.4-1.5-.1-1.5.8 0 .7-.9 1.3-1.9 1.2-1.1 0-1.7-.5-1.5-.9.3-.5 1-.6 1.5-.3.9.6 1.3-.9.9-3-.1-.6.4-.4 1.1.2 2.2 2.1 3.3 1.4 1.4-.7-1.8-2-1.8-2.1.1-1.4 1.5.5 1.4.2-.6-1.6-2.3-2-2.3-2-.2-1 1.6.8 2.2.8 2.2 0 0-.6.5-.8 1.1-.4.8.5.8.9-.1 1.4-.9.5-.9.9-.1 1.4.6.4 1.1 1.3 1.1 1.9 0 .7-.4.6-1-.3-.7-1.2-.9-1-.7.7.1 2.1 2.4 3.9 3.5 2.8.3-.3 0-.5-.6-.5-.7 0-1.2-.5-1.2-1.1 0-.5.4-.8.9-.4.5.3 1.2.1 1.6-.5.4-.6 1-.8 1.5-.5.5.3 1.1.2 1.4-.3.2-.4-.4-.9-1.5-.9-1-.1-1.9.4-1.9 1 0 .7-.4.6-1-.3-1.3-2-1.3-3.3 0-2.5.6.3 1 .1 1-.4 0-.6-.5-1.1-1.1-1.1-.5 0-.8-.4-.4-.9.3-.6-.6-.8-2-.5-1.4.2-2.5 0-2.5-.6s.5-.8 1-.5c.6.3 1-.1 1-.9s-.8-2-1.7-2.5c-1-.6-1.3-1.1-.8-1.1.6 0 1.7.6 2.4 1.2 1.1 1.1 1.2.9.7-.9-.5-1.5-.1-2.8 1.3-4.2 1-1 1.7-2.2 1.4-2.5-.3-.3.4-.4 1.5-.1 1.2.2 2.4 0 2.7-.6.4-.5.2-.9-.3-.9s-.9-.7-.9-1.5c0-2.1 1.4-1.9 1.9.3.3 1-.1 2.7-.8 3.7-.8 1.1-1.4 1.3-1.4.6 0-.7-.5-.9-1.1-.5-.8.4-.7.9.2 1.5 2.1 1.3 2.9 1.1 2.9-.7 0-1 .6-1.4 1.5-1.1.8.4 1.7.2 2-.2.3-.5 1.4-.7 2.5-.4 1.1.3 2 0 2-.6 0-.5-.7-.8-1.6-.4-1.4.5-1.5.3-.4-1.7 1-1.8 1.4-2 2.1-.9.8 1.2 1 1.1.8-.1-.1-.8-.1-2 0-2.5.1-1.3 4.1-1.7 4.1-.4 0 .5-.7.9-1.5.9s-1.5.5-1.5 1c0 1.6 3.6-.6 4.4-2.5.3-.9 1.1-1.3 1.7-.9.8.4.7.9-.2 1.5-1 .6-1 .9-.2.9 1.6 0 2.9-2.3 1.5-2.8-1.3-.4.5-5.2 2-5.2.5 0 .6.4.3 1-.3.5-.1 1 .5 1s.8.5.4 1.1c-.4.8-.9.7-1.5-.2-.5-.8-.9-.9-.9-.3 0 .5.7 1.9 1.5 3 1.5 1.8 1.5 1.8.8 0-.4-1.2-.3-1.7.4-1.3.7.4 1-.4.8-2.3-.1-1.6.1-2.7.6-2.4 1.4.8 1.1-1-.3-2.5-1.1-1-1-1.1.5-.6.9.4 1.7 1.3 1.7 2.1s.5 1.4 1.1 1.4c.5 0 .7-.5.3-1.1-.5-.8-.1-.8 1.3 0 2 1 3.3.6 3.3-1.1 0-.5-.6-.6-1.2-.2-.7.4-1 .3-.5-.1.4-.5 1.7-1 2.8-1.2 1.9-.3 1.9-.2.5 1.3-.9.8-1.3 2-1 2.6.5.7.2.8-.6.3-.9-.6-1.1-.4-.6.4.5.7 1.1 1 1.4.6.3-.3 1.2.5 1.9 1.7.7 1.3 1.2 1.7 1.3 1 0-.7.5-1 1.2-.6.7.5.8.3.2-.7-.4-.8-.9-2.7-.9-4.2l-.1-2.8 1.8 2.3c1.4 1.9 1.8 2 1.8.6 0-.9.4-2 1-2.3.6-.4.7.2.1 1.7-.5 1.3-1.4 2.2-2 2-1.4-.3-1.4 1.5-.1 2.3.6.3 1 .1 1-.4 0-.6.5-1.1 1.1-1.1.6 0 .8.8.4 1.9-.3 1.1-.1 2.2.4 2.6.7.4.8-.1.4-1.1s-.2-1.5.4-1.1c.5.3 1 0 1-.8s-.4-1.5-.9-1.5c-.4 0-.8-.7-.8-1.5s.5-1.5 1-1.5c.6 0 .9.3.9.7-.1.5 0 1 .1 1.3.1.3.3 1.3.6 2.2.2 1 .6 2.6.8 3.5.3 1 .5 30.6.5 65.9.1 50 .4 64.4 1.4 65.8 1 1.4 3.1 1.7 11.5 1.9 9.6.2 10.1.3 8 1.8-2.1 1.6-2.1 1.6.8 1.5 1.9-.1 2.9.4 3 1.4.1.8.2 2.1.3 2.8.1 1 .6 1 2.2.1 1.3-.7 1.9-.7 1.5-.1-.3.6.3 1.4 1.4 1.7 1.2.4 2 1.1 1.8 1.7-.4 1-1.9 1.2-1.7.1.1-.8-3.1-2.6-3.7-2-.3.2.6 1.5 2 2.8 1.3 1.2 2.2 2.8 1.9 3.5-.2.7 0 1.5.6 1.9.7.4.8-.1.4-1.2-.6-1.6-.5-1.7 1.3-.3 1.9 1.4 1.9 1.4 0-.8-2-2.3-.9-3.1 1.2-1 .9.9 1.5.9 2.3.1.8-.8.6-1.1-.7-1-1.3.1-1.9-.5-2-2-.1-1.2.3-2 .7-1.7.5.3 1.9.7 3.1.9 1.2.3 2.9 1.2 3.7 2.1 1.2 1.2 1.2 1.5.2.9s-1.2-.4-.6.5c.5.9.4 1.1-.4.6-.6-.4-.9-1.1-.6-1.6.3-.4-.1-1-.8-1.3-1-.4-1.4.4-1.4 2.4 0 1.6.4 2.9.9 2.9s.6-.5.3-1c-.7-1.2 2.3-.9 4.4.4.9.6 1.8.3 2.8-.9 1.3-1.8 1.3-1.8 2.8.1 1.4 1.9 1.5 1.9 3.3-.5 1.3-1.6 2.1-2 2.6-1.2.4.6 1.2.9 1.7.5.6-.3.8.5.5 2.1-.3 1.5-.2 2.5.1 2.1 1.2-1.1 1.3-4.5.3-5.1-.6-.4-.8-1.1-.4-1.6.3-.6 1.2-.3 1.9.8 1.2 1.7 1.4 1.6 2.6-1 .9-2 1.8-2.7 3.1-2.4 1 .3 1.6.1 1.2-.4-.3-.5-1.2-.9-2-.9s-1.2-.5-.9-1c.4-.6 1.1-.7 1.7-.4.6.4.8.2.4-.4-.3-.5-.1-1.2.5-1.4 1.5-.5.1-3.5-1.6-3.5-.8 0-1.5.4-1.5.9 0 .4.7.8 1.7.8 1.8 0 .8 1.5-1 1.5-.7.1-1.1.7-.9 1.4.1.7-.2 1-.9.5-.7-.4-.9-.3-.6.4.5.6-.1.8-1.5.4-1.8-.4-2-.2-1.4 1.4.5 1.4.4 1.6-.4.8-1.5-1.5-.2-4.4 1.7-3.7 1.3.5 1.4.3.3-1.6-1-2-.8-2.8 1.9-6.1 3.8-4.7 4-6.2.5-2.9-2.6 2.3-2.6 2.3-1.3.2.8-1.3 1.7-2.3 2.1-2.3.4 0 .5-1.1.2-2.4-.2-1.4.1-2.8.7-3.2.8-.5.4-1.3-1.2-2.6l-2.4-1.9 2.6 1.2c2.3 1 2.6 1.7 2.4 4.8-.1 2 .2 4.2.7 4.8.7.8.7 1.3.1 1.3-1.9 0-.9 2.6 1.1 2.8 1.7.1 1.8-.1.6-.8-1.3-.8-1.3-1.1-.1-1.9 1-.7 1.1-.9.1-1.3-.8-.2-1.4-1.1-1.6-2-.1-1.1.3-1.5 1.2-1.1.8.3 1.4 0 1.4-.7 0-.6-.5-.8-1-.5-1.1.7-.9-2.3.3-4.2.6-.9.3-1.1-1-.6-1 .3-1.5.3-1.1-.2.4-.4.3-1.4-.3-2.2-.8-.9-.8-1.3-.1-1.3.6 0 1.4.4 1.7 1 .3.5 1.1 1 1.7 1 .6 0-.1-.9-1.6-2.1-1.4-1.1-2.6-2.5-2.6-3.1 0-.7 1-.2 2.3 1 1.3 1.2 2.7 2.2 3.2 2.2s-.1-.7-1.3-1.6c-1.7-1.2-2-1.9-1.2-3.4.7-1.3.6-2-.3-2.4-.6-.4-.2-.4 1.1-.2s2 0 1.6-.6c-.3-.5-1.5-.8-2.5-.5-1.1.3-1.9.1-1.9-.4s.4-.9.9-.9c.6 0 .8-.9.6-2-.2-1.1 0-2 .6-2 .5 0 .9-.5.9-1.1 0-.5-.4-.8-.9-.4-1.1.6-1-3.8.1-4.5.4-.3-.2-1.1-1.3-1.9-1.6-.9-1.9-.9-1.4 0 .5.7.4 1-.2.6-.6-.4-1.7.1-2.4 1-1.2 1.4-1.1 1.5.9.9 2-.7 2.2-.5 1.8 2-.3 1.5-.1 3.3.4 3.9.5.6.5 1.7 0 2.5-.8 1.2-1 1-1-.8 0-1.3-.4-2-1-1.7-.7.4-.7 1.2 0 2.4.5 1 .7 2.8.5 4.1-.3 1.8-.2 2 1 1s1.5-1 1.5.1c0 .9-1.2 1.5-3.2 1.6-2.2 0-2.7-.2-1.6-.8.8-.4 1.4-1.8 1.2-3.1-.1-1.3-.3-2.7-.3-3.1-.1-.5-.6-.5-1.3-.1-.7.4-.2-.6 1-2.4 2.2-3 2.2-3.1.4-4.1-1.9-1-2.3-4.4-.7-5.8.4-.5.5-.2.1.4-.4.7-.3 1.3.3 1.3 2 0 2-1.8.1-3.5-1.8-1.6-2-1.6-2-.2 0 .9-.3 1.8-.7 2-.5.3-.8-.5-.8-1.8 0-2.8 1.1-2.7 5.6.8 3.7 2.8 6.8 3.9 3.3 1.1-1.8-1.4-1.8-1.5.6-.9 2.1.5 2.2.4.7-.5-.9-.6-2.1-.9-2.5-.6-1.4.9-4.2-3.2-3.5-5.1.5-1.5.4-1.6-.8-.7-1.6 1.3-5.1 1.5-4.3.3.2-.5 1.2-.6 2.2-.3 1.4.5 1.4.3-.2-1-1.1-.9-1.5-1.6-.9-1.6.7 0 1.5.5 1.8 1 .5.8 1.2.7 2.2-.1 1.3-1.1 1.1-1.5-.9-3.1-1.3-.9-1.8-1.8-1.3-1.7 2.6 0 4.2 2.6 4 6.2-.3 3.7.8 5.7 2 3.7.5-.7 1.2-.5 2.1.7 1.3 1.7 1.4 1.7.7-.1-.4-1.3-.3-1.7.5-1.2.6.3 1.3.2 1.6-.3.4-.5-.2-.8-1.1-.6-2.7.4-3.5-.5-2.1-2.3 1.2-1.5 1.1-1.6-.5-.3-1.5 1.2-1.7 1.1-1.4-.7.2-1.1.9-2.8 1.7-3.9 1.2-1.5 1.2-1.6 0-.6-1.6 1.5-3.4 1.7-2.5.4.3-.5 0-1.3-.6-1.7-.8-.5-.9-.3-.4.5.5.9.2.9-1.4 0-2.5-1.7-.6-3.2 2.2-1.7 2.4 1.3 3.4.2 2-2.1-1.6-2.5-.4-3.5 1.4-1.3 1.2 1.5 1.3 1.4.2-.8-.7-1.4-1.8-2.9-2.5-3.3-.8-.4-1.4-1.3-1.4-1.8 0-.6.4-.8.8-.5.4.2 1.3.1 2-.3.8-.4.5-1.1-.9-2-1.6-.9-1.9-.9-1.4 0 .5.7.4 1-.2.6-1.1-.7-1.2 4.1-.1 5.8.3.5 0 1.5-.7 2.2-1 1-1.6.9-2.4-.1-.6-.7-.8-1.6-.4-1.9.3-.4.1-.7-.5-.7-.7 0-1.2-.5-1.2-1.1 0-.8.4-.8 1.4 0 .9.7 1.7.8 2 .3.3-.6-.1-1.2-.9-1.6-.8-.3-1.5-1.1-1.4-1.8 0-1 .2-1 .6 0 .2.6.9 1 1.4.7 1.3-.9-2-5.5-3.6-4.9-.7.3-1.5.1-1.9-.4-.6-1 2.4-1 4 .1 1.8 1.1 2.5-.5.8-1.8-1.5-1-1.5-1.3.1-2.9 2.1-2 1.2-3.4-1-1.6-.9.7-1.8 1-2.2.6-.3-.3-.1-.6.6-.6s.9-.5.6-1c-.4-.6-.3-1 .2-.9 2.2.4 3.2-.2 2.6-1.7-.4-1.2-.7-1.3-1.4-.3-.4.8-1.1 1-1.6.6-.9-.9 1.7-2.8 2.9-2.1 1 .6 1.1-1 .1-1.9-.3-.4-1.1-.2-1.8.3-.8.7-1.1.4-1-1 .1-1.1.5-2.3 1-2.7.4-.5.5-.2.1.4-.4.7-.3 1.3.2 1.3.6 0 1.2-.7 1.6-1.5.3-.8.2-1.5-.3-1.5s-.8-1.1-.8-2.5.3-2.5.8-2.5c1.7 0 .9-4-1.3-6.1-1.7-1.6-1.9-2-.6-1.6 1 .3 2 .2 2.3-.3.4-.6-.2-1-1.2-1.1-1.4 0-1.5-.2-.3-.7 1.6-.8 2.5-3.2 1.2-3.2-.5 0-1.4-1.2-2.1-2.8-1-2.3-.9-2.5.2-1 2.1 2.7 2.8.9.9-2-.9-1.5-1.2-2.3-.6-1.9.7.4 1.9-.4 2.8-1.8 1.3-2 1.4-3 .5-4.6-.6-1.2-.7-1.9-.2-1.6 1.1.7 3.3-1.9 2.5-2.9-.4-.5.3 0 1.6 1 2.2 1.9 3 3.2 1.3 2.1-.5-.3-1.2-.1-1.6.5-.4.6-1.1.8-1.6.5-.5-.4-.9-.1-.9.4 0 .6.4 1.1.8 1.1.5 0 .9.7.9 1.5s-.3 1.2-.7 1c-.4-.2-.7.2-.7 1s.4 1.5.9 1.5c.4 0 .8-.5.8-1.1 0-.5.5-.7 1-.4.6.4.8 1.1.5 1.6-1 1.5.2 1 1.6-.8.8-.9 1-1.4.4-1.1-1.3.8-3.8-1.9-2.6-2.7.5-.3 1.2-.1 1.6.5.3.5 1.1 1 1.8 1 .6 0 .3-.6-.8-1.3-1.2-1-1.4-1.6-.7-2.1.7-.4 1.2-.2 1.2.3 0 .6.5 1.1 1.1 1.1.8 0 .8-.4 0-1.4-.7-.9-.8-1.7-.2-2 .5-.3 1.2 0 1.5.6.3.9.8.8 1.6-.5.6-.9 1.5-1.5 2.1-1.2 1.4.9 1.1-.2-.7-1.9-1.9-2-4-1.1-2.3 1 .8 1 .8 1.4 0 1.4-.6 0-1.1-.5-1.1-1.2s-.5-.5-1.2.5c-1.2 1.4-1.5 1.4-3.1-.9-1.6-2.1-1.6-2.5-.3-3 .9-.3 1.3-1.1.9-1.8-.3-.6-.1-.6.8.1.7.7 1.7 1.3 2.2 1.3.4 0 .5-.6.1-1.3-.4-.6.2-.3 1.4.7 2.3 2 3 1 1-1.4-1.1-1.2-1-1.2.5-.1 1.9 1.5 2.4.2.6-1.6-.8-.8-.8-1.3 0-1.8.6-.3 1-.2.9.4-.2.5.6 1.7 1.7 2.6 1.1.9 1.4 1.4.8 1-.9-.4-1.1 0-.7 1.2.5 1.5.4 1.6-.5.3-1.3-1.9-1.4-.1-.1 2 .7 1.1 1 1.1 1 .2 0-.7.4-1 1-.7.6.4.7-.1.3-1.1-.5-1.4-.3-1.5 1.7-.4 1.7.9 2.5.9 3.4 0 .8-.8.7-1-.5-.5-1 .4-1.6 0-1.6-.8 0-.9 1-1.4 2.4-1.3 1.5.1 2.1.6 1.8 1.4-.3.7-.1 1.1.4.7.5-.3 1.1 0 1.3.7.3.7.7.5 1.1-.6.4-1 .3-1.5-.3-1.1-.6.3-1 .1-1-.4 0-.6.5-1.1 1-1.1.6 0 1-.4 1-.8 0-.5-.7-.9-1.5-.9s-1.2.3-1 .7c.6 1.1-2.9.8-4.2-.3-1.2-.9-1.8.2-1.4 2.5.2 1.6-1.7.8-2.3-.9-.4-1-.4-1.4 0-1.1.3.4 1.4-.3 2.4-1.5 1.5-1.8 2-1.9 3.4-.8 1.4 1.1 1.7 1 2.5-1 .8-1.9 1-2 1-.6.1 1 .6 1.5 1.1 1.2.6-.4.7-1.2.3-1.8-.4-.7.1-.6 1.1.2 1.5 1.3 1.9 1.3 2.6 0 .7-1.1 1.2-1.1 2.2-.1.6.6.8 1.2.3 1.2-.6 0-.4.4.3.9 1.1.7 1 .9-.3 1.4-.9.4-1.4.3-1.1-.1.3-.5-.8-.8-2.5-.8-1.8 0-2.6.3-2 .9.5.5.7 1.7.4 2.6-.4 1.3-.3 1.4.5.1.6-.8.8-1.8.6-2.2-.3-.4 0-.8.5-.8.6 0 1.1.5 1.1 1.1 0 .6.9.8 2.2.3 2-.6 2.1-.5.9 1-.9 1-1 1.6-.2 1.6.6 0 1.1-.5 1.1-1.1 0-.5.6-.7 1.3-.3.7.5.6 0-.3-1.1-1.4-1.7-1.3-1.8.5-1.1 1.1.4 1.6.4 1.2 0-.4-.4-.1-1.4.6-2.2.6-.9.7-1.3.2-1-.6.4-1.1-.2-1.1-1.3 0-1.9.1-1.8 1.9.3 1.3 1.6 1.7 1.8 1.3.5-.7-2.3.1-2.2 1.4.2.8 1.7.7 1.9-.9 1.6-1.4-.3-1.8.3-1.8 2.2l-.1 2.6 1.3-2.3c1.2-2.2 1.3-2.2 2.3-.4.9 1.6 1 1.5.8-1.1-.1-1.7-.5-3.5-.8-4-.4-.6.3-1.2 1.5-1.2 1.5-.2 1.8 0 .8.6-.9.6-1 1.1-.2 1.5.6.4 1.4 0 1.7-.8.3-.9 1.1-1.6 1.7-1.6.7 0 .7.4-.1 1.2-1.7 1.7-1.5 3.3.3 1.8.8-.7 1.6-1 1.6-.6.3 1.5.7 2.6.9 2.8 1 1 1.2 12.7 1.5 70.2.3 51.7.7 65.2 1.7 66.2.7.7 3.7 1.4 6.6 1.5 3.5.2 5.1.6 4.8 1.4-.2.6.2 1.2.9 1.2s1.1-.6.8-1.4c-.3-.7 0-1.3.6-1.3s1.1.4 1.1 1c0 .5.5 1 1.1 1 .5 0 .8-.4.5-.8-.3-.5.1-.9.9-.9s1.7.7 2 1.5c.4 1.1.8 1.2 2 .2 1-.9 1.5-.9 1.5-.1 0 .6-.4 1.1-.9 1.1-1 0-.9 2.6.2 3.6.4.4.7 1.1.7 1.6 0 .4-1-.2-2.1-1.3-2-2-2.2-2-3.1-.4-.8 1.3-.5 2 1.1 3.2 1.2.8 1.9 1.8 1.7 2.2-.8 1.2 2.7 1 4.3-.3 1.2-.9 1.3-.8.8.7-.4 1-.3 1.6.2 1.2.5-.3 1.1.1 1.4.7.3 1 .7 1 2-.1 2.9-2.3 1.9.2-1 2.7l-2.8 2.4 3.2-2.2c4.6-3 5.2-4.4 1.7-3.9-.4 0-1.1-.5-1.5-1.3-.7-1-.9-1-.9.2 0 1.3-.1 1.3-1 0-1.4-2.2-1.2-2.8 1.3-4 2.1-1.1 2.1-1 .3.4-1.1.9-1.6 1.9-1.3 2.3.4.3.7.3.7-.1s.9-.2 2 .4c1.6.8 2.5.7 4.2-.4 1.5-1.1 2.6-1.2 4-.5 1.6.9 1.8.7 1.4-1.7-.3-1.4-.2-2.3.2-1.9.9.9 1 8.5.1 8.5-.4 0-.9 1-1.2 2.2-.6 2.2-.6 2.2 1.2-.2 1.7-2.1 2.1-2.2 3.5-1 1.3 1 2 1 2.8.2 1.5-1.5 2.5-1.5 3.1 0 .2.7.3.5.2-.4-.2-1 .1-2.1.6-2.4.8-.5 1.3 1 1 2.9-.1.5.3.6.8.2.6-.3.7-1.3.4-2.3-.6-1.5-.5-1.6 1.2-.2 1.1.9 1.6 1 1.1.2-.4-.6-.3-1.2.3-1.2.5 0 1.2.6 1.4 1.2.4 1 .6 1 .6 0 .1-.7.5-1.1.9-.8.5.3.9-.1.9-.9s-.4-1.5-.9-1.5-.6-.5-.2-1.2c.5-.7 1.1-.5 2.1.7.7 1.1 1.3 1.4 1.3.8 0-.7-.4-1.5-1-1.8-1.5-.9-1.2-2.5.6-2.5.8 0 1.3.4.9.9-.3.6.5 1.5 1.7 2.1 1.9.9 2.1.9.8-.2-1.7-1.5-2.7-5.3-1.1-4.4.5.4 1.3.1 1.7-.5.4-.8.3-.9-.4-.5s-1.2.3-1.2-.2 1-1.2 2.2-1.5c1.8-.5 1.9-.8.8-2.1-1-1.3-1-1.6 0-1.6.8 0 1-.3.7-.6-.4-.4-1.3-.1-2.2.6-1.3 1-1.5.9-1.5-.8 0-1.5-.5-1.9-2-1.5-1.1.3-2 0-2-.6 0-.5.7-.8 1.5-.4 1.8.6 1.7-1.4-.2-3.5-1.6-1.6-1.6-2.9-.3-3.7.6-.4.7-1.2.3-1.8-.4-.7 0-.6 1 .2 1.9 1.5 2.3.1.5-1.7-.8-.8-.8-1.5.2-2.7 1.5-1.8 0-2-2-.3-1.1 1-1.1.9 0-.6 1.4-1.8 1.3-1.9-.3-1.3-1.1.4-1.6.3-1.2-.4.4-.5 1.6-.7 2.8-.3 1.9.6 2 .5.8-.9-.7-.9-1.6-1.5-2-1.3-.4.3-.7-.4-.7-1.4 0-1.1.6-1.6 1.4-1.3 2 .8 1-2-1.3-3.4-1.1-.7-1.4-1.2-.7-1.3.7 0 1-.5.6-1.2s-.3-.8.5-.4c.6.4.9 1.2.6 1.7-.4.5-.2.9.4.9 2 0 2.1-2 .1-3.2-1.1-.7-2-1.7-2-2.2 0-.4.6-.3 1.3.3 2.4 1.9 2.7 0 .3-2.3-1.2-1.1-2-2-1.7-1.9.2.2 1-.6 1.8-1.6.8-1.2 2-1.7 3.2-1.4 1 .3 2.1 0 2.5-.5.7-1.1-4.3-1-6.1.1-.6.4-1.5.3-1.8-.3-.4-.6-.3-1 .2-.9 1.9.3 2.7-.2 1.4-1-1-.7-.7-.9 1.2-.8 1.4.1 2.2.6 1.9 1.2-.3.5.1.4 1-.2.8-.7 1.8-1 2.1-.6.4.3.7.1.7-.5s-.4-1.4-1-1.7c-.5-.3-1-.2-1 .3 0 1.6-3 .9-4.7-1.1-1.3-1.4-1.4-1.8-.3-1.2 2.2 1.3 3.9 1.5 4.6.4.3-.5 1.1-.6 1.7-.2 1.8 1.1 3.8 1.2 3.1.2-.3-.5-.9-.7-1.4-.4-.4.3-1.1-.3-1.4-1.2-.6-1.4-.9-1.5-1.5-.4-.5.7-1.1.9-1.4.4-.3-.5.7-2.4 2.3-4.1 1.6-1.8 2.7-3.2 2.6-3.2-1.2 0-5.6 2.9-4.9 3.2.4.3.3.4-.3.2-.6-.1-1 .8-.8 2.2.2 2.4-1 3.2-2.1 1.4-.3-.6-.1-1 .4-1 .6 0 1.1-.4 1.1-1 0-.5-.8-.7-1.7-.4-1.5.5-1.5.4-.4-.4 1.3-.9 1.3-1.3 0-2.9-1.3-1.6-1.3-1.7.3-.4 1.5 1.1 2.2 1.1 4.3-.3 2.3-1.5 3.7-3.5 1.6-2.2-.5.3-1.1-.1-1.5-.9-.3-.8-.1-1.7.4-2 .6-.4 1-.1 1 .6s.3.9.6.6c.4-.4.2-1.3-.4-2-.7-.8-.9-1.7-.5-2 .3-.4.1-.7-.6-.7-.8 0-1.1.6-.7 1.6.3.8.2 1.2-.4.9-.9-.5-.6 2.7.4 4.3.2.4-.4.8-1.4.9-1.1.1-2.3-.3-2.6-.9-.5-.8-.1-.9 1-.5 1.2.5 1.6.3 1.3-.5-.2-.7-1.5-1.2-2.8-1.1-1.4.2-1.8 0-.9-.4 3.3-1.4 4.4-3.4 3.1-5.5-.9-1.5-.9-2.3 0-3.4 1.4-1.7-.2-1.9-1.9-.2-.9.9-1.2.9-1.2 0 0-.7.5-1.2 1.1-1.2.6 0 .9-.6.6-1.3-.2-.6-1-1.1-1.6-.9-.7.1-.9-.2-.6-.8.5-.8 1.3-.6 2.6.6 2 1.8 2.7.6.7-1.4-.9-.9-.9-1.5 0-2.4.7-.7 1.2-1.8 1.2-2.6 0-.9-.7-.6-2 .9-1 1.3-1.9 1.9-2 1.2 0-.6.6-1.4 1.3-1.7 1-.5 1-.7 0-1.2-.7-.3-1.3-1-1.3-1.6 0-.7.5-.6 1.4.1 1 .8 1.6.9 2.1.1.3-.5.1-1-.5-1-.7 0-.9-.8-.4-2.2.6-2 .5-2.1-1-.9-2 1.7-2.1.5-.2-1.5.9-.8 2.2-1.1 3.3-.7 1.6.6 1.6.5.4-1-1-1.3-1.8-1.4-3.2-.6-1.3.6-1.9.6-1.9-.1 0-.5.7-1 1.5-1s1.5-.5 1.5-1c0-.6-.7-1-1.5-1s-1.5-.5-1.5-1c0-.7.6-.7 1.9-.1 1 .6 2.1.7 2.5.3.4-.3.4.2 0 1.2-.5 1.2-.4 1.7.3 1.3 1.2-.8 4.6 2.6 3.6 3.6-.3.4.1.7 1.1.7.9 0 1.5.4 1.2.8-.2.4 2.4 2.3 6 4.2 3.5 1.9 6.4 3.7 6.4 4 0 .3 1 .6 2.2.7 1.2.1 3.4 1.1 4.9 2.2 1.8 1.4 3 1.6 3.7.9.7-.7 1.4-.4 2.1 1.1.8 1.5.9 2.1.1 2.1-.6 0-.8.4-.5 1 .3.5 1.3 1 2.1 1 1 0 1.2-.5.8-1.3-.6-.9-.4-.9.8.1.8.7 2.2 1.1 2.9.9.8-.2 1.1-.2.7 0-1.5.9-.8 2.1 1 1.9.9-.2 2 .1 2.4.7.9 1.4-.2 3.8-1.4 3.1-.6-.4-.6-.9.2-1.4.8-.5.7-.9-.5-1.3-.9-.4-1.4-.3-1.1.1.3.5 0 .9-.7.9s-2 .4-3 .8c-1.3.5-1.6.3-1.1-.8.3-1 1.2-1.3 2.2-.9 1.5.5 1.5.4.2-1.2-.8-1.1-1.6-1.4-1.8-.7-.2.7-.9.8-2.1.1-1-.5-2.1-.7-2.4-.4-.3.3-.3-.9-.1-2.6.4-2.2.2-3-.5-2.5-.6.3-.9 1.1-.6 1.6.4.5.1.9-.4.9-.6 0-1.1-.5-1.1-1.2 0-2.1-1.3.1-1.5 2.7-.2 1.4.1 2.3.6 1.9.5-.3.9.1.9.8 0 1 .2 1 .9-.1s1-1.1 1.7.1c.5.8 2.1 2.3 3.6 3.3 1.5.9 2.5 2.2 2.1 2.8-.3.6-.1.7.6.3.9-.6.9-1.1 0-2.2-.8-.9-.8-1.4-.1-1.4.6 0 1.6.8 2.1 1.7.6 1 1.1 1.2 1.1.5 0-.6.3-1.1.8-1.1 2.2.4 4.2-.2 3.7-1.1-.3-.6-.1-1 .5-1 .7 0 1 .7.7 1.5-.4.8-.2 1.7.3 2 .5.3.6 1.3.3 2.3-.4 1.1.1.8 1.3-.7 1.9-2.2 2.1-2.2 3.7-.6 1 .9 1.5 2.1 1.2 2.6-.4.5-.2.9.3.9.6 0 1.3-.7 1.6-1.6.3-.8.2-1.3-.3-1-.5.3-1.1-.1-1.5-.9-.6-1.8-.1-1.9 2.5-.4 1.1.5 1.7 1.4 1.4 1.9-.3.4.3.7 1.2.5 1-.1 2.5.1 3.5.6 1.2.6 1.6.5 1.4-.6-.1-.8-.6-1.8-1.1-2.2-.4-.4-.5-.2 0 .6.5.9.3 1.2-.5.9-.8-.2-1.6-1-1.8-1.8-.3-.8 0-1 .7-.5.8.4 1.1.1.9-1-.2-1 .3-2 1.1-2.3.9-.3 1.1.1.6 1.7-.5 1.7-.2 2.1 1.7 2.1 1.8 0 2-.2.8-1-1-.6-1.1-1-.2-1 .6 0 1.2-.8 1.2-1.8 0-1.4.2-1.5 1-.2.6.9.5 1.7-.2 2.1-.7.4-.7.9.1 1.4.7.3.9 1.6.6 2.8-.2 1.2-.2 1.6.1.9.3-.6.9-1 1.3-.8.4.3.8-.1.8-.9s-.4-1.5-.9-1.5c-.4 0-.3-.9.4-2s1.7-2 2.2-2c.4 0 .3.6-.3 1.4-.9 1-.9 2 0 4 .7 1.4 1.6 2.3 2 2 .5-.3.9.4.9 1.5s.4 2.2.9 2.5c1.6 1-.1-3.8-2-5.7-2.3-2.2-2.3-2.1-.2-3.8 1.4-1 1.5-1 .7 0-1.5 1.7 2.4 6 4.6 5.1 1.9-.8 3.1-.7 4.8.4.7.4 1.6.5 1.9.2.4-.3.1-.6-.6-.6s-.9-.5-.6-1c.9-1.4 3.5.6 3.1 2.3-.1.7-.1.9.1.4.3-.4.9-.7 1.4-.7.6 0 .7.5.3 1.2-.5.7-.3.8.6.3 1-.6 1-1.1-.3-2-.9-.7-1.4-1.5-1.1-1.8.4-.3 2.3.5 4.3 2 2 1.4 2.6 1.6 1.3.5-1.2-1.1-1.9-2.3-1.5-2.5 1.2-.7 5.4 2.9 4.5 3.8-.4.5-.1.5.6.1 1.7-1 1.5-2.6-.4-2.6-.8 0-1.2-.5-.9-1 .4-.6 1.1-.8 1.6-.5.5.4.9.1.9-.4 0-.6.8-1.1 1.7-1.1 1.3 0 1.4.3.5 1.2-.7.7-1.2 1.7-1.2 2.3.1 1.2 2.4-2.5 2.5-4 .1-.6-.3-1.7-.9-2.5-.6-.8.1-.5 1.5.8 1.4 1.2 2.8 2 3 1.8.3-.3.5.3.5 1.4 0 1-.4 1.6-.8 1.4-.4-.3-.8 0-.8.5 0 .6.6 1.1 1.3 1.1.8 0 .7.4-.3 1-1.2.8-1.2 1-.1 1 2.5 0 .7 9.1-2.3 11.7l-2.7 2.3-45.7-.1c-33-.1-45.9-.4-46.4-1.3-.6-.8-.8-.7-.8.2 0 .7-.4 1.1-.9.8-1.2-.8-5.4 2.7-5.7 4.7-.1 1 .3 1.7.9 1.7.8 0 .8.3.2.8-1.2.8-1.4 23.2-.2 23.2.4 0 .7.6.5 1.4-.2.8.2 1.5.7 1.6.6.1 1.7.8 2.5 1.5 1.6 1.5 1.7 1.5 5.6 1.5 1.4 0 2.2.4 1.9 1-.4.6.6.7 2.5.4 3.3-.7 3.5-.4 2 2.9-1 2.2-1 2.2.6 0 2.1-3 4-3 2-.1-1.7 2.4-2 3.9-.8 3.7 1.8-.3 2.2.2 1.3 1.9-.7 1.4-.6 1.9.4 1.9.7 0 1.1-.6.9-1.2-.3-.6.2-1.2 1.1-1.2.8 0 1.4.5 1.2 1.1-.3.6 0 1.9.5 2.9.7 1.3 1.3 1.5 2.8.7 1.5-.8 2.1-.6 2.9.9.6 1 .7 2.2.3 2.6-.4.5-.2.5.5.1s1-1.2.7-2c-.3-.7.2-1.3 1.1-1.3 2.1 0 1.9 1.3-.6 3.8-1.2 1.2-1.5 1.9-.8 1.7.8-.3 2.3-2 3.3-3.8 1.4-2.4 1.6-3.1.5-2.5-1.1.7-1.2.6-.2-.7.7-.8 1.1-1.7.8-2-.3-.2.2-.5 1-.5s1.5.4 1.5.9c0 .4-.5.8-1.1.8-.8 0-.7.6.2 1.7.8 1 .9 1.4.2 1-.8-.5-1.1-.1-.8 1.3.2 1.1-.1 2-.7 2s-.8.3-.5.6c.4.4 1.8-.1 3.3-1 2.6-1.8 2.6-1.7 1.9.6-.9 2.6-.3 2.3 1.4-.9 1.1-2.2 0-2.6-2.7-.9-.7.4-1.6.5-1.9.2-.3-.3.1-.8 1-1.2.9-.3 1.3-1.2 1.1-1.9-1-2.6 1.5-2.5 3.5.1 2.1 2.7 2.4 2.6 2.3-1.1-.1-1.7 0-1.7.4-.3.6 1.9 1.6 2.3 2.7 1.1.4-.3.1-1.3-.6-2.2-1.1-1.4-1-1.4.5-.2 1 .7 1.5 1.8 1.1 2.4-.4.6 0 .8 1.1.4 1.4-.6 1.5-.3.6 1.3-.6 1.1-1.6 2-2.3 2-.8 0-.8-.3.2-.9.8-.5.9-1.1.3-1.5-.5-.3-1.3.1-1.6 1-.4 1.1.1 1.8 1.4 2.1 1.1.3 1.7 1 1.3 1.7-.4.6 0 .5.9-.2 1.1-.9 1.8-1 2.3-.2.3.5.1 1-.4 1-.6 0-1.1.4-1.1 1 0 .5 1.3.1 3-.8 1.6-.9 3-2.1 3-2.7 0-.5-.5-.4-1.2.3-1.6 1.6-2.9 1.5-2.5-.1.1-.6-.4-1.1-1-1-.7.2-1.3-.2-1.3-.8 0-.7.7-.8 1.8-.4 1.9.7 2.2.8 4 .6.7 0 1-.6.7-1.2-.4-.6.2-.5 1.4.3 1.2.7 2.1 1.7 2.1 2.2 0 .4-.6.4-1.3-.2-1-.8-1.3-.6-1.4.9-.2 2.2.7 2.4 2.6.6 1.1-1 1.3-.9.9.3-.4 1 .1 1.5 1.6 1.6 1.1 0 2.9.4 3.9.9 1.5.6 1.7.3 1.3-1.7-.5-3.1.4-4.7 3.3-5.3 1.2-.2 1.9 0 1.6.4-.3.5.2 1.1 1 1.5.8.3 1.5 0 1.5-.7s.5-.4 1.1.6c.6.9 1.6 1.4 2.2 1.1.8-.5.7-.2-.1.7-1.1 1.2-1.4 1.2-2.1 0-.6-.9-1.1-1-1.5-.2-.4.6-.2 1.1.4 1.1.6 0 .8.5.4 1.1-.5.8-.8.8-1.4 0-.4-.7-1.5-.9-2.5-.5-1.4.6-1.6.4-1-.6.6-.9.4-1.1-.4-.5-.8.4-.9 1.1-.4 1.6 1.4 1.4 6.3 2.1 6.3.9 0-.5.5-1 1.1-1 .5 0 .7.4.4 1-.3.5-.1 1 .5 1 .7 0 1-.7.6-1.5-.3-.9 0-1.5 1-1.5.9 0 1.2-.5.8-1.3-.4-.6-.3-.8.1-.4.5.4 1.5-.3 2.2-1.5l1.4-2.3-.7 2.5c-.7 2.5-.7 2.5 1.5.6 1.1-1.1 2.4-1.6 2.8-1.3.3.4.1.7-.6.7s-.9.5-.6 1c.5.8 1.1.8 2 0 1.5-1.3 4.6-1 5.7.5.4.5 1 .6 1.4.2.4-.3.1-1.5-.7-2.4-1.2-1.7-1.2-1.7.5-.2 1.4 1.3 1.6 2.1.7 3.7-1.5 2.8-1.4 3.5.4 2.8.8-.3 2.1.4 3 1.7.8 1.2 1.5 1.7 1.5 1.3 0-.5-.7-1.8-1.7-2.8-.9-1-1.1-1.8-.5-1.8.6 0 1.7.9 2.6 2.1 1.4 2.1 1.4 2.1 3.4.1s2-2 3.1.2c1 2 1.1 2 .5-.4-.6-2.3-.6-2.4 1.1-1 1.1.9 1.6 1 1.1.2-.4-.6-.3-1.2.3-1.2.5 0 1.3.9 1.6 2 .5 1.6 1 1.8 2.6.9 1.5-.8 2.4-.7 3.7.3 1.1.9 1.4 1 .8 0-.4-.6-.2-1.2.3-1.2.6 0 1.1-.4 1.1-.8s-1.1-.8-2.5-.8-2.5.4-2.5.8-.7.8-1.5.8-1.5-.5-1.5-1.1c0-.5.4-.8.9-.4.5.3 1.2.1 1.6-.4.3-.6-.4-.8-1.5-.6-1.1.2-1.8 0-1.5-.6.4-.5 1.1-.6 1.7-.3.8.5.9.1.5-1.2-.6-1.6-.5-1.7.5-.4 1.6 1.9 3.6 1.9 4.8 0 .5-.8 1.2-1.1 1.7-.7.4.5.1 1.2-.7 1.7-1.2.8-1.2 1 .3 1.6.9.3 1.5 1 1.2 1.4-.3.4.2 1.3 1 2s1.2 1.6.9 2.1c-.3.5.3.6 1.2.2 1.3-.5 1.5-.3.9.7-.5.9-.4 1.1.4.6.6-.4.9-1.2.6-1.7-.4-.5-.1-.9.6-.9s.4-.6-.7-1.4c-1.1-.8-1.5-1.8-1-2.3.5-.4 1.1-.2 1.3.4.3.7.9 1.3 1.5 1.3s.5-.6-.2-1.5-1.9-1.4-2.7-1.1c-.8.3-1.1.1-.8-.5.4-.5 1.6-.7 2.8-.3 1.8.5 2 .4 1-.7-.7-.7-1.3-1.7-1.3-2.3 0-.5.7-.1 1.6 1 1.4 1.8 1.5 1.8.9-.6-.5-1.9-.4-2.2.4-1 .7 1 1.1 1.1 1.1.2 0-.6.5-1.2 1.2-1.2.9 0 .9.3 0 1.2-1.7 1.7-1.5 3.3.3 1.8.8-.6 2-.8 2.6-.4.9.5.7 1.1-.6 2-1.3 1-2.2 1.1-3.1.3-1.5-1.3-2.6.2-1.4 2.1.7 1.2 1.1 1.2 2.6-.1 1.6-1.2 1.7-1.2 1.1.3-.3 1-.4 1.8-.1 1.8.2 0 .9-1.2 1.5-2.8l1.1-2.7 1.8 2.2c1.5 1.9 1.9 2 2.4.7.3-.8.2-1.2-.4-.9-.6.3-1 .2-1-.3 0-1.9 1.4-2.1 4.2-.6 1.7.9 3.2 1.3 3.5 1.1.2-.3-.5-.8-1.6-1.2-1.2-.3-2.1-1.1-2.1-1.7 0-.5.8-.7 1.8-.4 1.6.6 1.6.5 0-.8-2.4-1.8-2.3-2.9.1-1.7 1 .6 2.1.8 2.4.4.4-.3 1.4 0 2.4.8 1.4 1.2 1.6 1.2.8 0-.6-1.1-.4-1.3.9-.8 1.1.4 1.5.3 1.1-.4-.4-.6-1.3-.8-2.1-.5-.7.3-2-.1-2.8-.9-1.7-1.7-3-2-2.1-.5.3.6-.1.7-.9.4-.9-.3-1.6-.9-1.6-1.3 0-1.1 3.3-1 4.8.2.7.5 1.5.7 1.9.4.3-.4 1.5-.2 2.6.4 1.4.8 1.8.8 1.2 0-1.1-1.8 1.5-4.4 3-3.1 1 .8 1.5.8 2.1-.1.4-.8.3-.9-.4-.5s-1.2.2-1.2-.3c0-1.6-1.6-1.3-3.4.5-1.1 1.1-1.6 1.2-1.6.3 0-.8-.5-.6-1.3.5-1.3 1.7-1.4 1.7-2.8 0-1.2-1.5-1.2-1.6 0-.9 1.1.6 1.3.4.8-.9-.4-1-.3-1.5.3-1.1.6.3 1 0 1-.7 0-.8.4-.7 1.1.4.5.9 1.6 1.5 2.4 1.2.8-.4 1.2-1 .9-1.5-.3-.5-1-.7-1.5-.4-.5.3-.6-.1-.3-1 .6-1.4.8-1.4 2 .2 1.2 1.7 1.3 1.6 1.1-.5-.1-2-.9-2.7-3-2.3-.5.1-.6-.3-.2-.9.4-.7 1.2-.7 2.6 0 1.3.7 1.9.7 1.9 0 0-.5-.4-1-1-1-.5 0-1-.5-1-1.2 0-.6.9-.3 2 .7 1.4 1.3 1.7 2.1.9 2.6-.8.5-.7.8.2 1.2 1 .4 1 .6.2.6-2.2.2-1.4 1.7 1.5 3 2.3 1 2.5 1 1-.2-2.1-1.7-2.3-2.9-.5-2.5.7.2 1.3-.2 1.3-.7 0-.6-.7-.9-1.4-.7-.8.2-1.1-.1-.7-.8.4-.7 1.8-.9 3.4-.6 2.2.5 2.3.5.8-.5-1-.6-2.4-.8-3.1-.6-.7.3-1.8-.4-2.5-1.5s-.8-1.7-.2-1.3c.6.3 1.1.1 1.1-.4 0-.6-.5-1.1-1.1-1.1-.6 0-.9-.6-.6-1.3.2-.6 1.1-1.1 2.1-.9.9.2 1.6-.4 1.6-1.3 0-.8.4-1.5.8-1.5 1 0 .9 5.6-.2 6.7-.4.4-.6.2-.4-.6.2-.7-.3-1.6-1-1.8-1.1-.4-1.2-.1-.3 1.6 1.6 2.8 2.3 2.7 4.4-.9 1-1.7 2.3-3 2.8-3 .6 0 .7.6.3 1.2-.4.7-.3.9.1.5.5-.4 1-1.4 1.1-2.2.2-1.1-.2-1.2-1.6-.5-1.7.9-3 .4-3-1.1 0-.5.8-.5 1.8-.2 1.6.7 1.6.6 0-1.1-2.2-2.1-2.2-2.6-.2-2.6.9 0 1.2.5.8 1.2-.5.9-.2.8.9-.1 1.4-1.1 1.5-1.7.6-2.8-.9-1-.9-1.7-.1-2.5 1.6-1.6 1.5-2.5-.4-3.2-.8-.3-1.2-.2-.9.3.6 1.1-1.3 2.6-2.2 1.7-.4-.3.2-1.5 1.2-2.6s1.5-2 1.1-2c-.4 0-.2-.9.4-1.9 1.4-2.7.3-5.6-1.6-4-.8.6-1.1 1.6-.8 2.1.4.6 1 .5 1.5-.3.6-1 .9-1 .9-.2 0 1.6-1.7 2.6-2.5 1.3-.4-.6-1.2-.7-1.8-.3-1.3.8 1.2-2.8 2.8-3.9.5-.4 1.4-.3 2.1.2.6.6 1.4.6 1.9.2.4-.4.4.4.1 1.8-.6 1.9-.5 2.1.3 1 .6-.8.8-2.5.4-3.7-.3-1.6-.1-2.3.8-2.3s1-.3.4-.8c-.6-.4-1-1.4-1-2.2.1-.8-.3-2.1-.8-2.8-.7-.8-.6-1.7.1-2.4 1.7-1.7 1.5-2.9-.4-2.6-1 .2-1.9-.3-2.1-1-.3-.7.1-1.1.9-1 .8.2 1.2-.5 1.1-2-.2-1.2.2-2.2.7-2.2.6 0 1-.5 1-1.1 0-.5-.4-.8-.9-.4-.5.3-1.2.1-1.5-.4-.4-.5-1.9-.8-3.4-.5-2.3.3-2.5.2-1.2-.8 1.9-1.6 1.9-3.6 0-4.9-1.3-.9-1.2-1 .2-.6.9.3 1.9.3 2.1-.1.2-.4.2-.1 0 .6-.1.7.2 1 .8.7.6-.4.8-1.4.5-2.2-.4-.9-.1-2.3.6-3.1 1-1.2 1-1.4.1-.8-.7.4-1.3.2-1.3-.3 0-.6-.4-1.1-.9-1.1-.4 0-.8 1-.7 2.2.1 1.7-.5 2.3-2.1 2.4-1.3.1-2.3-.3-2.3-.7 0-.5.8-.9 1.7-.9.9 0 1.3-.3 1-.7-.4-.3-.2-1.2.4-2 1.4-1.7-.2-1.7-2-.1-1.1 1.1-1.2 1-.6-.1s.4-1.3-.9-.8c-1 .4-1.5.3-1.1-.3.3-.6.1-1-.6-1s-1-.3-.7-.6c.4-.3 1.5-.1 2.5.4 2.7 1.5 6.9-2 5.3-4.5-1-1.7-1-1.7-.8.1.2 1-.2 2.1-.9 2.3-1.2.4-1.1-2.6.2-4.7.3-.5-.1-.7-.9-.4-1.5.6-1.6-.3-.3-4.6.2-.8.2-1.2 0-.7-.3.4-.9.5-1.4.2-.5-.4-.6.2-.2 1.1.4 1.2.3 1.5-.5 1-.7-.4-1.2-.2-1.2.3 0 .6.6 1.1 1.3 1.1.7 0 .4.7-.7 1.5-1.3 1-2.3 1.1-3.1.5-.7-.5-1.5-.7-1.8-.3-.4.3-.7.1-.7-.5 0-1.1 1.3-1.6 3.3-1.3 1 .2.9-1.7-.2-2.4-.5-.3-1.2-.1-1.6.5-.4.6-1.1.8-1.6.4-.5-.3-.7-1-.3-1.5.3-.5 0-1.6-.6-2.4-.9-1.1-1.7-1.2-3.4-.4-2 .9-2 .9-.3-.5 1.8-1.4 1.8-1.5-.1-2.5-1.1-.6-2.3-.7-2.8-.3-.5.4-.2-.2.6-1.2 1.4-1.8 1.3-1.9-.5-1.2-1.1.4-1.6.4-1.2 0 .3-.4-.3-2-1.4-3.5-1.1-1.6-1.7-2.9-1.2-2.9.4 0-.3-.7-1.5-1.6-1.2-.8-1.9-2.1-1.6-2.7.4-.7.4-.9-.1-.5-.4.4-2.5-.7-4.5-2.6-2-1.8-6.1-4.5-9.1-5.9-9.4-4.7-16.9-5.6-46.1-5.8-24.1-.1-26.6-.3-26-1.8.5-1.4.3-1.4-1.4.1-1.9 1.6-2 1.6-2-.1 0-1.1.6-1.7 1.3-1.4.8.3 1.1-.2.8-1.6-.2-1.2 0-2.1.6-2.1.8 0 1.3 1.5 1 3.3-.1.5.3.6.9.2.6-.4.7.1.4 1.2-.4 1.2-.3 1.4.3.6.6-.8 1.4-.9 2.3-.3.8.6 2 1 2.5.9.6 0-.2-.7-1.7-1.5-3.1-1.6-3.8-3-1.1-2 1.1.5.9-.1-.7-1.6-1.4-1.3-3.4-2.2-4.5-2.1-1.8.3-1.8.3.1-.6 3.5-1.6 4-3.3.7-2.6l-2.8.5 2.8-1.1c1.5-.6 2.4-1.5 2.1-2.1-.4-.6-.2-.8.3-.5.6.4 1.8-.2 2.8-1.3 1.8-2 .8-2.9-1.1-1-.7.7-1.1.6-1.1-.5 0-.8.2-1.3.5-1 .8.8 4.3-1.5 3.7-2.5-.3-.5-.1-1.2.5-1.5.6-.4 1-.3.9.2-.4 2.2.3 2.4 2.7.8 1.5-1 2.3-1.2 1.9-.4-.6.9-.3 1.1.9.6 1-.4 1.5-.3 1.1.3-.3.6-.2 1 .3 1 .6 0 1.2-.7 1.6-1.5.3-.8 1.2-1.5 2.1-1.5 1.4 0 2-1.2 1.6-3.3-.1-.5.3-.6.9-.2 1.4.9-.6 4.5-2.5 4.5-.8 0-1.2.6-.9 1.4.4 1.1-.1 1.4-2.1 1.2-1.7-.2-2.9.3-3.6 1.6-.6 1.1-1.3 1.7-1.6 1.4-.3-.3-1.4.5-2.4 1.7-1.6 2-1.8 2-1.9.4 0-1-.5-1.5-1-1.2-.6.4-.8 1-.5 1.5.3.5.1 1.1-.5 1.5-.6.4-.7 1.1-.4 1.7.5.7.2.8-.6.3-.9-.6-1.1-.4-.5.5.6.9.4 1.1-.5.5-.9-.6-1.1-.4-.6.4.5.7 1 1 1.4.7.3-.3 1.1.2 1.9 1.2 1 1.3 1.3 1.4 1.1.2-.2-.8.2-1.4.8-1.3.6.1 1.1-1 1-2.5-.1-1.9.6-3 2.2-3.7 1.2-.5 2.5-1.8 2.8-2.8.3-.9 1-1.5 1.5-1.1.6.4.6 1.1-.1 1.9-1.2 1.5-.6 3.5 1.1 3.5.5 0 .9-.5.9-1.1 0-.5-.5-.7-1-.4-.5.3-1 .2-1-.4 0-2 1.8-2 4.3-.1 1.8 1.5 2.8 1.7 3.3.9.4-.7.3-.9-.4-.5-1.1.6-2.5-.9-2.8-3.2-.3-1.6 1.1-1.5 3 .3.9.9 1.7 1.1 2.1.5.3-.5.1-1-.6-1s-1-.3-.6-.6c.3-.4 1.4-.4 2.3 0 1.3.5 1.4.9.4 2.1-.8.9-.8 1.5-.2 1.5.6 0 1.2-.5 1.4-1.2.2-.6 1-.8 1.7-.4.9.6.9 1.1-.1 2.4-1.2 1.5-1.1 1.6.6.2 1.7-1.4 1.7-1.5-.4-3.2-1.7-1.3-1.8-1.8-.7-1.8.9 0 1.9.4 2.2 1 .3.5 1.2 1 1.8 1 .7 0 .6-.4-.3-1-1-.6-.5-.9 1.9-.8l3.3.1-2.2 1.7c-1.8 1.4-2 1.9-.9 2.5.8.5 1.1.5.7 0-.4-.4.7-1.9 2.4-3.1 2.9-2.2 3.4-2.3 5.5-.9 2.8 1.9 3.7 1.9 2.9 0-.6-1.7.2-1.9 2.3-.6.8.5 1.2 1.5.9 2.3-.4 1 .2 1.4 2.2 1.3 1.6 0 2.6-.3 2.4-.6-.7-1.3 2.7-1.9 4.6-.9 1.2.7 1.7 1.7 1.4 2.8-.5 1.4-.4 1.5.5.2.6-.9.7-1.8.1-2.4-1.8-1.8-1.1-3 .8-1.4 2.7 2.3 4.2 3 4.2 1.9 0-.6-.8-1.1-1.7-1.1-1.4 0-1.5-.2-.4-1.3 1-1 1.5-.8 2.7.7 1.3 1.9 1.4 1.9 1.4.1 0-1 .3-1.5.6-1.2.4.3 1.6.1 2.8-.5 1.9-1 2-1 .7.5-1.9 2.3-.5 2.1 1.8-.2 2.2-2.2 1.7-3.5-.9-2.1-1 .5-2 .6-2.4.3-.3-.3-.6-.2-.6.4 0 .5-1.5.9-3.4.9-2-.1-3.2-.5-2.8-1.1.3-.5-.1-.5-.9.1s-2.2 1-3.2.9c-1-.2-1.4.1-1.1.7.4.7.2.8-.4.4-.6-.4-2.5 0-4.2.9-2.7 1.4-3 1.4-3 0 0-1 .5-1.3 1.2-.9s.8.3.4-.5c-.4-.6-1.2-.8-1.8-.5-.7.4-.8.2-.4-.4.4-.8.2-1-.7-.6-.8.3-1.8.1-2.2-.5-.8-1.3-2.6-1.5-2.3-.2.2.5-.1.9-.7.9-.5 0-.9-.4-.7-.9.3-1.3-1.2-1.1-2.6.3-.7.7-1.2.8-1.2.2 0-1.5 4.4-3.4 5.9-2.5 2.1 1.4 9.6-.3 8.6-1.9-.3-.5-.1-1.1.4-1.5.6-.3.8.3.6 1.5-.5 2.7 3.1 4.8 3.8 2.2.4-1.6.5-1.6.6.1 0 1 .6 1.5 1.1 1.2.6-.4.7-1.2.3-1.8-.3-.7.2-.5 1.3.4 2.6 2.1 7.3 2.3 8.1.3.5-1.3.7-1.3 1.4-.2.8 1.1 1 1.1 1.8 0 .7-1.1.9-1.1 1.4.2.4.9 1.8 1.4 3.8 1.4l3.1-.1-2.3-1.9c-2.2-1.8-2.2-1.9-.2-.9 1.2.6 2.5 1.6 2.8 2.1.3.6 1.4 1 2.3 1 1.3 0 1.2-.5-.8-2l-2.5-2.1 2.8 1.2c1.5.7 2.7 1.6 2.7 2.1 0 1.3 2.4.5 3-1 .3-.8 1-1.3 1.5-1.2.5.1 1.3-.7 1.7-1.7.7-1.5.8-1.4.4.4-.2 1.3 0 2.6.5 2.9.6.3.4 1.5-.5 2.9-1.2 1.7-1.3 2.6-.4 3.1.7.4.8.3.4-.4-.8-1.3 2.8-3.5 3.9-2.4.5.4.6.2.3-.3-.3-.6 0-1.6.8-2.3 1-1 1.4-1 1.4-.1 0 .7.3.9.6.6 1.1-1.1-1.7-3.6-3.3-3-1 .4-1.1.8-.3 1.3s.7 1-.3 1.8c-1.1.9-1.3.7-1.1-1.1.1-1.2.3-2.6.3-3 .1-.5.5-.6 1-.2.5.3 1.2.1 1.5-.4.3-.5-.6-1.2-2-1.5-1.5-.4-2.4-.9-2.2-1.2.3-.2 1.6-.1 2.9.4 2.8 1.1 5.2.5 4.3-1-.4-.7-.2-.8.4-.4.7.4 1.2.3 1.2-.2s.7-.9 1.5-.9c1.9 0 1.3 2.2-.6 2.2-.8.1-1.3.6-1.2 1.3.2.6-.3.9-1.1.6-.8-.3-1.7-.1-2.1.5-.6 1 .7 1.5 2.8 1.2.4-.1.5 1.1.2 2.6-.5 2.6-.5 2.7.5.5.6-1.4 1.5-2.1 2.2-1.7.7.4.5 0-.4-.8-1.7-1.3-1.7-1.5 0-3.1 1-.9 2.3-1.3 2.7-.9.5.5.2-.3-.7-1.7-1.4-2.3-1.4-2.7 0-4 .9-.8 2.3-1.8 3.1-2.2 1.4-.6 1.4-.7.1-.7-.9-.1-2.1.4-2.7 1-.8.8-1.1.4-1-1.5.2-2 .6-2.5 2.2-2.1 1.7.4 1.6.3-.2-.6-2.4-1.2-3.1-2.9-1.3-2.9.6 0 1-.5 1-1.1 0-.8-.4-.8-1.4 0-.9.7-1.7.8-2 .3-.3-.6.1-1.2.9-1.6.8-.3 1.2-1.2.9-2.1-.3-.8-1-1.2-1.5-.9-.5.3-.9-.1-.9-.8 0-1-.3-.9-1 .2-.5.8-.5 1.9-.1 2.5.5.5.7 1.8.6 2.8-.2 1 .1 1.4.7 1.1.7-.4.8-.2.4.4-.4.7-.1 1.2.6 1.2.9 0 .9.3-.2 1-2.2 1.4-3.3 1.2-2.6-.5.3-.8.1-1.5-.4-1.5-.6 0-1 .5-1 1.2 0 .6-.3.8-.7.4-.5-.4 0-1.3 1-2.1 1.6-1.2 1.5-1.4-1.5-3.4-1.8-1.2-2.6-2.1-1.8-2 2.9.3 4.1-.1 3.5-1.1-.3-.6.1-1.3.9-1.6.9-.3 1.6-1.1 1.6-1.7 0-.6-1-.1-2.2 1-2.3 2.1-6.2 2.8-5.1 1 .4-.6 0-.8-1-.4-1.1.4-1.4.2-1-.9.3-1 0-1.2-1-.8-.8.3-1.8 0-2.2-.6-.6-.9-.9-.9-1.4-.1-.4.6-.7-2.2-.7-6.3.1-4.1-.1-7.4-.4-7.4-.3.1-1.8-.4-3.5-1.1-4.4-1.9-12.1-3.4-23.2-4.5-2.9-.3-7.4-.8-10-1.1-8.4-1-20.2-1.5-44.8-2.1-35.8-.9-46.6 1.8-58.2 14.6-2.9 3.2-8.5 12.8-8.9 15.5-.1.5-.5 2.3-.9 4-.4 1.6-.8 3.9-.9 5-.2 1.1-.6 1.8-1.1 1.7-.4-.2-1.2.4-1.8 1.3-.6 1.2-.3 2.2 1 3.7 1.2 1.4 1.3 1.8.3 1.2-.8-.4-2.4-.8-3.5-.7-1.6.1-1.6.1-.3-.3 1.4-.4 1.6-1 .8-2.4-.5-1-.7-2.7-.3-3.7.6-1.6.5-1.7-1.2-.3-1 .8-1.6 1-1.2.4.4-.7 0-1.5-.9-1.8-1.2-.5-1.4-.1-1 1.7.3 1.2.3 1.6 0 .9-.3-.6-1-1-1.4-.7-.5.3-1.2 0-1.6-.6-.4-.7-.3-.9.3-.6.6.4 1.4 0 1.7-.9.3-.8 1-1.2 1.6-.9.6.3.7-.1.4-1-.5-1.1-1-1.3-1.9-.5-1 .8-1.3.7-1.1-.5.1-.8.5-1.6.9-1.6 1.2 0 3.9 1.7 3.8 2.4-.3 1.9 0 2.4 1.4 2.4.8 0 1.5-.4 1.5-.9 0-.4-.8-.8-1.7-.8-1.4 0-1.5-.2-.4-.9s1.1-.9 0-1.3c-1.2-.4-1.2-.8-.1-2.1 1.1-1.3 1.1-1.5 0-1.3-.7.1-1.8.5-2.5.9-.6.4-1.4.3-1.8-.3-.3-.5 0-1 .7-1s.2-.7-1-1.6c-1.9-1.3-2.1-1.9-1.1-3 1-1.2 1-1.5-.2-1.2-.8.2-1.3-.3-1.1-1 .3-1.7-1.5-1.5-2.2.3-.9 2.5-4.4 1.1-7-2.7-1.3-2-2.2-3.9-1.8-4.2.3-.3-.1-.6-.9-.6s-3.2-1.9-5.4-4.1c-5-5.1-15.9-10.4-25-12.4-7-1.4-26.4-1.5-33 0-15.5 3.3-19.2 4.5-31 10.1-3.3 1.6-7.7 3.9-9.8 5.2-2.1 1.2-4.2 2-4.8 1.7-.5-.4-.8-.1-.7.7.2.7-.3 1.2-.9 1-.7-.1-1.3.2-1.3.8 0 .5-.5 1-1.1 1-.6 0-.9-.7-.6-1.4.4-1 .1-1.3-.9-.9-1.7.6-1.9-1.3-.1-2.1.6-.3.3-.4-.8-.3-1.1.1-1.9-.3-1.8-1 .2-.7-.4-1-1.2-.7-.8.4-1.5.1-1.5-.5s.5-1.1 1.1-1.1c.5 0 .7-.5.3-1.1-.4-.8-.9-.7-1.5.2-.6 1.1-1.3.9-3.1-.7-3.9-3.6-13-8-20.3-9.9-6.7-1.7-26.5-2.8-32.5-1.8zm187.1 27.1c-.8.3-.7.8.5 1.7 1 .7 1.8 1.9 2 2.8.3 1.9-2.3 3.1-3.2 1.5-.4-.7-.3-.8.4-.4s1.2.2 1.2-.3c0-.6-.3-1.1-.7-1.1-.5 0-1.9-1-3.3-2.1s-2-1.8-1.3-1.5c.6.4 1.8 0 2.5-.8s1.7-1.1 2.3-.8c.5.3.4.7-.4 1zm170.3 1.1c.4.5-.3.7-1.4.4-2.3-.6-2.6-1.3-.6-1.3.8 0 1.7.4 2 .9zm10.1 1.9c-.3.3-1.1 0-1.8-.7-.9-1-.8-1.1.6-.5 1 .3 1.5.9 1.2 1.2zm-6.1 2.1c.4.5-.3.7-1.4.4-2.3-.6-2.6-1.3-.6-1.3.8 0 1.7.4 2 .9zM309 194c0 .5-.2 1-.4 1-.3 0-.8-.5-1.1-1-.3-.6-.1-1 .4-1 .6 0 1.1.4 1.1 1zm177.1 2.6c.4.2.9-.2 1.2-.8.2-.8.8-.9 1.3-.4s.4 1.1-.4 1.3c-.9.4-1 .8-.2 1.8.8.9.8 1.5 0 2-.6.3-.8 1-.6 1.4.3.3-.4.7-1.4.7-1.8 0-1.8-.2-.4-2.3 1.6-2.5 1.1-3.1-3-3.7-.8-.1-1.8-.5-2.2-.9-.7-.7 4.4.1 5.7.9zm-3 3.1c1.3 1.6 1.2 1.7-.3.4-1.7-1.3-2.2-2.1-1.4-2.1.2 0 1 .8 1.7 1.7zM321 202c0 .5-.4 1-1 1-.5 0-1-.5-1-1 0-.6.5-1 1-1 .6 0 1 .4 1 1zm162 1.6c0 .8-.4 1.4-1 1.4-.5 0-.6-.8-.3-1.8.6-1.5.5-1.6-1.3-.2-1.8 1.4-1.8 1.4-.5-.2 1.5-1.9 3.1-1.5 3.1.8zm-70.5 2.4c.3.5.1 1-.4 1-.6 0-1.1-.5-1.1-1 0-.6.2-1 .4-1 .3 0 .8.4 1.1 1zm38.5.5c0 .2-.9.3-1.9.2-1.1 0-1.8-.5-1.5-.9.4-.6 3.4 0 3.4.7zm-131.2.8c.8.9.8 1.7 0 2.7-.8 1.2-.9 1.2-.4-.2.3-1-.2-2.2-1.2-2.7-.9-.6-1.2-1.1-.6-1.1s1.6.6 2.2 1.3zm153.5 1.1c-1 1.3-2 2.2-2.2 2-.4-.4 2.9-4.4 3.6-4.4.2 0-.4 1.1-1.4 2.4zm-343.8-.4c-.3.5-1.2 1-1.8 1-.7 0-.6-.4.3-1 1.9-1.2 2.3-1.2 1.5 0zm9.5 0c0 .5-.5 1-1.1 1-.5 0-.7-.5-.4-1 .3-.6.8-1 1.1-1 .2 0 .4.4.4 1zm112 .2c0 .4-.4.8-.9.8-.6 0-1.2-.4-1.5-.8-.3-.5.1-.9.9-.9s1.5.4 1.5.9zm173.7.5c0 .8-.4 1-1.2.3-.7-.5-1.6-.6-2-.2-.5.4-.5.2-.2-.4.9-1.5 3.4-1.3 3.4.3zm19.8-.7c.3.5.1 1-.4 1-.6 0-1.1-.5-1.1-1 0-.6.2-1 .4-1 .3 0 .8.4 1.1 1zm14.5-.6c0 .3-.4.8-1 1.1-.5.3-1 .1-1-.4 0-.6.5-1.1 1-1.1.6 0 1 .2 1 .4zm-8.5 2.7c-.8 1.2-3.5 1.2-3.5-.1 0-.5.7-.6 1.7-.3 1.2.5 1.4.3.8-.7-.5-.9-.4-1.1.4-.6.6.4.9 1.2.6 1.7zm-333.7.1c-.2.7.2 1.2.9 1.1.7-.2 1 .4.6 1.2-.5 1.3-.7 1.3-1.8-.2-.7-1-1.1-2.1-.9-2.5.8-1.2 1.4-.9 1.2.4zm111.7-.2c.3.5.1 1-.4 1-.6 0-1.1-.5-1.1-1 0-.6.2-1 .4-1 .3 0 .8.4 1.1 1zm6.5-.6c0 .2-.7.7-1.6 1-.8.3-1.2.2-.9-.4.6-1 2.5-1.4 2.5-.6zm5.9.6c-.6.5-1.8.6-2.6.3-1.9-.8-1.6-1.1 1.3-1.1 1.7 0 2.2.3 1.3.8zm4.8-.4c-.3.3-1.2.4-1.9.1-.8-.3-.5-.6.6-.6 1.1-.1 1.7.2 1.3.5zm155.3.4c0 .5-.4 1-1 1-.5 0-1-.5-1-1 0-.6.5-1 1-1 .6 0 1 .4 1 1zm7.5 1c-1 1.1-1.3 2-.7 2 .6 0 1.8-1 2.7-2.3l1.7-2.2-.7 2.2c-.4 1.4-.2 2.3.4 2.3.6 0 1.1-.7 1.1-1.5s.4-1.5 1-1.5c1.5 0-.1 3-2.2 4.1-1.5.8-1.9.8-1.4 0 .9-1.4 0-1.4-2.5-.1-3.3 1.8-4.1 0-1.1-2.5 3.3-3 4.1-3.2 1.7-.5zm11.2-.5c-.4.8-.2 1.7.3 2 .6.4 1-.1 1-.9 0-.9.5-1.6 1-1.6.7 0 .7.6.1 1.9-.6 1-.8 2-.6 2.3.2.2-.4.4-1.4.4-1.2 0-1.7-.5-1.3-1.4.4-1.1-.3-.9-2.3.4l-2.8 1.8 1.2-2.2c.7-1.2 1.6-2 2.2-1.7.5.4 1.2-.1 1.5-.9.3-.9.8-1.6 1.1-1.6.3 0 .3.7 0 1.5zm32.4.8c-1 .9-1.1.8-.5-.6.3-1 .9-1.5 1.2-1.2.3.3 0 1.1-.7 1.8zm8.3-.7c.3.8.2 1.2-.4.9-.6-.3-1-1-1-1.6 0-1.4.7-1.1 1.4.7zm-239.9.3c.3.5.2 1.2-.3 1.5-.5.3-.9-.1-.9-.9 0-1.7.3-1.9 1.2-.6zm-85.8 1.6c0 .8-.4 1.5-.9 1.5-.4 0-.8-.7-.8-1.5s.4-1.5.8-1.5c.5 0 .9.7.9 1.5zm112 0c0 .8-.4 1.5-.9 1.5-.4 0-.8-.7-.8-1.5s.4-1.5.8-1.5c.5 0 .9.7.9 1.5zm-131.2 5.4c-1 .9-1.5 1-1.1.3.4-.6.3-1.2-.1-1.2-.5 0-1.5.6-2.3 1.2-.7.7-.3-.1 1.1-1.8 1.9-2.5 2.6-2.8 3.3-1.6.5.9.2 2-.9 3.1zm-10.9-2c-.4.5 0 1.1.6 1.4 1.9.6 4.9-.4 4.2-1.4-.3-.5 0-.9.5-.9 1.7 0 1.3 1.4-2 6.3-3.1 4.8-4.8 6.5-5 5 0-.4-.2-1.7-.4-2.7-.2-1 .6-2.7 1.8-3.8l2.2-1.9-2.5.6c-1.9.5-2.2.4-1-.4.8-.6 1.1-1.1.7-1.1-.9 0 .1-2 .9-2 .3 0 .3.4 0 .9zm114.9.1c-.3.5-1.2 1-1.8 1-.7 0-.6-.4.3-1 1.9-1.2 2.3-1.2 1.5 0zm183 0c.3.5.1 1-.4 1-.6 0-1.1-.5-1.1-1 0-.6.2-1 .4-1 .3 0 .8.4 1.1 1zm-17.5 3c-.6 1.1-1.3 2-1.6 2-.2 0 0-.9.6-2s1.3-2 1.6-2c.2 0 0 .9-.6 2zm-284 1.5c0 .1-.8.5-1.8.7-1.1.3-1.9 0-1.9-.7s.8-1 1.9-.7c1 .2 1.8.6 1.8.7zm290.6 3.4c-1.1 1.7-2.5 1.3-2.1-.7.2-.9.4-1.9.4-2.2.1-.2.6.1 1.2.7s.8 1.6.5 2.2zm-299.2-.1c.3.5-.1.9-.9.9s-1.2-.4-.9-.9c.3-.4.7-.8.9-.8.2 0 .6.4.9.8zm5.6.2c0 .5-.5 1-1.1 1-.5 0-.7-.5-.4-1 .3-.6.8-1 1.1-1 .2 0 .4.4.4 1zm221 1.4c0 .3-.4.8-1 1.1-.5.3-1 .1-1-.4 0-.6.5-1.1 1-1.1.6 0 1 .2 1 .4zm-230 2c0 .3-.4.8-1 1.1-.5.3-1 .1-1-.4 0-.6.5-1.1 1-1.1.6 0 1 .2 1 .4zm120 2.7c0 .5-.5.9-1.2.9-.6 0-.8-.3-.5-.7.4-.3.1-1.3-.6-2.2-1.1-1.4-1-1.4.6-.2.9.7 1.7 1.7 1.7 2.2zm-116-1.2c0 .5-.7 1.2-1.6 1.5-1.4.5-1.5.4-.4-.9 1.4-1.7 2-1.9 2-.6zm111.7 5.6c0 .8-.4 1.2-.9.9-.5-.3-.6-1-.3-1.5.9-1.3 1.2-1.1 1.2.6zM90.5 236c-.3.5-1.4 1-2.3.9-1.4 0-1.3-.2.3-.9 2.7-1.1 2.7-1.1 2 0zm-2.1 7c-.5.5-1-.3-1.1-1.8-.1-2.2 0-2.4.9-.8.6 1 .6 2.2.2 2.6zm116.3-1.8c-.3.8-.6.5-.6-.6-.1-1.1.2-1.7.5-1.3.3.3.4 1.2.1 1.9zm115.8-1.2c.3.5.1 1-.4 1-.6 0-1.1-.5-1.1-1 0-.6.2-1 .4-1 .3 0 .8.4 1.1 1zm-113.6 3.3c-.2.1-1.5 1.1-2.9 2.2l-2.5 2 1.9-2.3c1.1-1.2 2.4-2.2 2.9-2.2.6 0 .8.1.6.3zm114.1.7c0 .5-.5 1-1.1 1-.5 0-.7-.5-.4-1 .3-.6.8-1 1.1-1 .2 0 .4.4.4 1zm-115.5 8c.4.6 1.2.7 1.8.3.8-.4.7-.1-.1.9-1.3 1.6-5.5 2.2-4.6.6.3-.4 1.2-.5 2.2-.2 1.4.5 1.4.3-.2-1-1.1-.9-1.5-1.6-.9-1.6.7 0 1.5.5 1.8 1zm119.5 1.4c0 .3-.4.8-1 1.1-.5.3-1 .1-1-.4 0-.6.5-1.1 1-1.1.6 0 1 .2 1 .4zm-236.4 3.2c.1.9 0 1.3-.4 1-.3-.4-.7-1.4-.8-2.2-.1-.9 0-1.3.4-1 .3.4.7 1.4.8 2.2zm237.9-.6c.3.5.1 1-.4 1-.6 0-1.1-.5-1.1-1 0-.6.2-1 .4-1 .3 0 .8.4 1.1 1zm-230.7 2.8c.2.7-.2 1-1.1.6-1.9-.7-1.7 1.7.2 4 .8.9 1.1 1.9.8 2.3-.4.3-.9-.1-1.3-1-.5-1.5-.8-1.4-2.5.6-1 1.2-1.9 2-1.9 1.7-.7-2.9-.7-3.9-.2-3.9 2.1.3 2.8-.4 2.8-2.6 0-1.4-.5-2.4-1-2.2-.6.2-1 1.1-.8 2.1.2.9-.1 1.6-.7 1.6-.5 0-.8-.8-.6-1.8.2-.9.4-2.1.4-2.5.1-1.2 5.4-.2 5.9 1.1zm109.4.4c-.7 2.7-1.7 2.9-1.7.4 0-1.3.5-2.3 1.1-2.3.6 0 .9.9.6 1.9zm115.9 8.5c1.3 1.6 1.2 1.7-.3.4-1.7-1.3-2.2-2.1-1.4-2.1.2 0 1 .8 1.7 1.7zm171.5 8.8c.1 2.9-.4 3.1-2.2.8-.9-1.3-.9-2.2-.2-3.1 1.4-1.6 2.2-.8 2.4 2.3zM89 280c0 .5-.5 1-1.1 1-.5 0-.7-.5-.4-1 .3-.6.8-1 1.1-1 .2 0 .4.4.4 1zm268 2.5c0 1.2-1.9 1.2-2.3 0-.4-.9-.1-1.2.9-.8.7.3 1.4.7 1.4.8zm20.5-.5c-.3.5-1.2 1-1.8 1-.7 0-.6-.4.3-1 1.9-1.2 2.3-1.2 1.5 0zm-4.8 2.5c0 .8-.4 1.5-.9 1.5-.4 0-.8-.7-.8-1.5s.4-1.5.8-1.5c.5 0 .9.7.9 1.5zm29.7.1c.3.8.2 1.2-.4.9-.6-.3-1-1-1-1.6 0-1.4.7-1.1 1.4.7zm-41.4 1.6c0 .6-.6.5-1.5-.2-.8-.7-1.5-1.4-1.5-1.6 0-.2.7-.1 1.5.2.8.4 1.5 1.1 1.5 1.6zm23.1.1c-.8.8-1.4.7-2.3-.2-1.1-1-.9-1.1.6-.5 1.5.6 1.7.4 1.1-.6-.6-.9-.4-1.1.4-.5.9.5 1 1 .2 1.8zm-289.6-.4c.3.5.2 1.2-.3 1.5-.5.3-.9-.1-.9-.9 0-1.7.3-1.9 1.2-.6zm107.6 1.8c-1.2 2-1.4 1.4-.5-1.2.4-.9.9-1.4 1.1-1.1.3.2 0 1.3-.6 2.3zm123-1c1.2 1.6 1.2 1.7-.2.6-.9-.7-2-.9-2.4-.5-.5.4-.5.1-.1-.6.9-1.6 1.1-1.5 2.7.5zm51.6-.5c.2-.6 1-1.2 1.6-1.2.8 0 .7.4-.1 1.2-.7.7-1.2 1.6-1.2 2.2 0 .6.5.5 1.2-.2 1.5-1.5 2.8-1.5 2.8 0 0 .6-.3.8-.7.5-.3-.4-1.2-.2-2 .4-.7.6-1.3.8-1.3.4s-.6-.2-1.4.4c-.9.8-1.6.8-2 .2-.4-.5-.2-1.2.3-1.6.6-.3.8-1.3.5-2.3-.5-1.5-.4-1.5.6-.2.9 1.1 1.3 1.2 1.7.2zm9.3 1.8c-.6 1.2-.9 2.9-.5 3.8.5 1.3.2 1.3-1.4-.2-1.9-1.8-2-4.3-.1-3.1.5.3 1.2-.4 1.5-1.6.4-1.1.9-1.8 1.2-1.6.2.3-.1 1.5-.7 2.7zm23-2.4c0 .8-1.9 1.3-2.4.6-.3-.5.1-.9.9-.9s1.5.2 1.5.3zm18-.2c0 .2-.7.7-1.6 1-.8.3-1.2.2-.9-.4.6-1 2.5-1.4 2.5-.6zm-11.5 3.3c.2 1 .4 2 .4 2.2.1.2.9-.5 1.9-1.6 1.5-1.9 2-1.9 3.7-.7 2.2 1.6 3.9 1.9 3 .4-.3-.6.1-.7 1-.4 1.3.5 1.1 1-1.2 2.4-1.8 1.1-3.2 1.4-4 .8-.7-.6-1.4-.5-1.8.2-.5.8-1 .8-2 0s-1.5-.8-2 0-1.1.8-1.9.1c-.7-.6-1.6-.7-2-.3-1.2 1.1-3 .9-4.1-.5-.7-.9-1.4-1-2.5-.2-1.3.9-1.2 1 .3.5.9-.3 1.7-.1 1.7.4 0 1.4-2.6 1.2-3.8-.3-1-1.2.6-4.7 2.3-4.7.4 0 .2.7-.5 1.5-1.4 1.7-.7 1.9 2 .5 1.6-.8 1.8-.8 1.4.5-.8 2.1.3 1.9 2.8-.5 1.2-1.1 2.4-1.7 2.7-1.4.3.4 0 .9-.7 1.1-.6.3-.9.9-.6 1.4.9 1.6 3.4-1 2.7-2.9-.3-.9-.3-1.4.1-1 .4.3.9 1.4 1.1 2.5zm16.5-.5c0 .6-.6.5-1.5-.2-.8-.7-1.5-1.4-1.5-1.6 0-.2.7-.1 1.5.2.8.4 1.5 1.1 1.5 1.6zm-108 .2c0 .2-.7.7-1.6 1-.8.3-1.2.2-.9-.4.6-1 2.5-1.4 2.5-.6zm169.2 2.4c-.7.2-1 .7-.8 1.1.3.4-.1.8-.9.8-1 0-1.2-.4-.5-1.2.5-.7.7-1.5.3-1.9-.4-.4.1-.4 1.2 0 1.1.5 1.4.9.7 1.2zM212 292.1c0 .6-.4.7-1 .4-.5-.3-1-1.1-1-1.6 0-.6.5-.7 1-.4.6.3 1 1.1 1 1.6zm-5.1-.8c-.2.1-1.5 1.1-2.9 2.2l-2.5 2 1.9-2.3c1.1-1.2 2.4-2.2 2.9-2.2.6 0 .8.1.6.3zm-117.5 3.2c-.4.8-1.1 1.5-1.6 1.5-.6 0-.5-.6.2-1.5.7-.8 1.4-1.5 1.6-1.5.2 0 .1.7-.2 1.5zm408.5 3.1c-.8 1-.8 1.4 0 1.4.6 0 1.1.4 1.1.9s-.8.8-1.7.6c-1-.1-2.3.1-2.9.6-.7.6-1 .1-.9-1.3.2-2.3 3.3-5.1 4.7-4.2.5.3.4 1.2-.3 2zm-408.7 6.1c-.3 1.6-.7 2.2-1 1.5-.4-1.3.4-4.2 1.1-4.2.2 0 .2 1.2-.1 2.7zm122.3-.8c.3.5.2 1.2-.3 1.5-.5.3-.9-.1-.9-.9 0-1.7.3-1.9 1.2-.6zm287.6 1.9c.2-.2.1.1-.4.7s-1.1.5-1.6-.3c-.6-1-1.2-.7-2.5 1.2-.9 1.4-2.1 2.6-2.6 2.6-.6 0 0-1 1.2-2.2 1.6-1.6 1.8-2.3.9-2.6-1.1-.4-1.1-.6 0-1.3.8-.5 2-.2 3 .7.8.8 1.8 1.3 2 1.2zM91 308c0 .5-.4 1-1 1-.5 0-1-.5-1-1 0-.6.5-1 1-1 .6 0 1 .4 1 1zm231-.6c0 .2-.8 1-1.7 1.7-1.6 1.3-1.7 1.2-.4-.4 1.3-1.6 2.1-2.1 2.1-1.3zm177 1.1c1.1 1.3 1 1.5-.6.9-1.7-.5-1.7-.4-.4.8.9.7 1.5 1.9 1.4 2.5-.1.7-.2 2-.3 2.9-.1 1.3-.4 1.4-1.6.4-.8-.7-2.1-1-2.8-.7-1.8.7-1.6-4.5.2-6.7 1.7-2 2.5-2 4.1-.1zm-295 5.1c0 .8-1.9 1.3-2.4.6-.3-.5.1-.9.9-.9s1.5.2 1.5.3zm116.8 2.9c-.3.3-.9-.2-1.2-1.2-.6-1.4-.5-1.5.5-.6.7.7 1 1.5.7 1.8zm-114.3.3c-.3.3-1.1 0-1.8-.7-.9-1-.8-1.1.6-.5 1 .3 1.5.9 1.2 1.2zm-119.1 1c.3.5-.1.9-.9.9s-1.2-.4-.9-.9c.3-.4.7-.8.9-.8.2 0 .6.4.9.8zm116 0c.3.5-.1.9-.9.9s-1.2-.4-.9-.9c.3-.4.7-.8.9-.8.2 0 .6.4.9.8zm289.6-.3c0 .7-3 1.3-3.4.7-.3-.4.4-.9 1.5-.9 1-.1 1.9 0 1.9.2zm1.5 5.5c.3.4-.2 2.1-1 3.6-.8 1.6-1.5 2.2-1.5 1.3 0-.8.5-2 1.2-2.7 1.4-1.4.7-2.3-2-2.5-1.1 0-1.9-.4-1.6-.8.5-.8 4.2 0 4.9 1.1zM89 324.1c0 .5-.4.9-.8.9-.5 0-.9-.7-.9-1.5s.4-1.2.9-.9c.4.3.8.9.8 1.5zm115.6.4c-.3.8-.1 1.6.5 1.9.5.2.4.3-.2.2-.7-.1-1.3-1.2-1.4-2.4-.1-1.1.2-1.9.7-1.6.5.4.7 1.2.4 1.9zm-109.5-.2c-.7.7-.7 1.6-.1 2.8 1.5 2.6-.6 3.4-3.7 1.3l-2.7-1.7 2.1-1.7c2.3-1.8 6.1-2.4 4.4-.7zm226 3.4c1.3 1.6 1.2 1.7-.3.4-1.7-1.3-2.2-2.1-1.4-2.1.2 0 1 .8 1.7 1.7zm169.6.8c0 .8-.4 1.2-.9.9-.5-.3-.6-1-.3-1.5.9-1.3 1.2-1.1 1.2.6zm-282.3 3.7c.1.7.5 1.9.9 2.5.5.9.3 1.1-.6.7-.8-.3-1.4-1.6-1.4-3 0-2.5.7-2.7 1.1-.2zm288.2 0c1.1 1.3 1.3 1.8.4 1.2-2-1.2-3.4-1.2-4.2.1-.5.6-.8.5-.8-.3 0-.7-.5-1-1.2-.6s-.8.3-.4-.5c.4-.6 1.2-.9 1.7-.6.5.4.9.1.9-.4 0-1.7 1.5-1.3 3.6 1.1zm-175.2 1.6c.3.5-.1.9-.9.9s-1.2-.4-.9-.9c.3-.4.7-.8.9-.8.2 0 .6.4.9.8zm168.1.2c.3.6-.1.7-.9.4-1.8-.7-2.1-1.4-.7-1.4.6 0 1.3.4 1.6 1zm-400.5.4c0 .2-.6.9-1.4 1.5-1.1.9-1.6.9-2.2 0-.4-.7-.3-.9.4-.5.6.3 1.3.2 1.7-.4.6-1 1.5-1.4 1.5-.6zm404.4 1.4c.3.5-.1.9-.9.9s-1.5-.4-1.5-.9c0-.4.4-.8.9-.8.6 0 1.2.4 1.5.8zm-404.1 2.7c-.3.9-.8 1.4-1 1.1-.3-.3-.2-.9.2-1.5.9-1.6 1.5-1.3.8.4zm4.6 1.4c.6 1 .7 2.1.4 2.5-.9.8-3.3-1.4-3.3-3 0-2 1.8-1.7 2.9.5zm228.4-.4c-.3.9-.8 1.4-1 1.1-.3-.3-.2-.9.2-1.5.9-1.6 1.5-1.3.8.4zm-116.8.5c.3.6-.1.7-.9.4-1.8-.7-2.1-1.4-.7-1.4.6 0 1.3.4 1.6 1zm289 0c.3.5.1 1-.4 1-.6 0-1.1-.5-1.1-1 0-.6.2-1 .4-1 .3 0 .8.4 1.1 1zm-407 2c.3.6-.1.7-.9.4-1.8-.7-2.1-1.4-.7-1.4.6 0 1.3.4 1.6 1zm118.5.5c0 .2-.9.3-1.9.2-1.1 0-1.8-.5-1.5-.9.4-.6 3.4 0 3.4.7zm117 2.9c0 .3-.4.8-1 1.1-.5.3-1 .1-1-.4 0-.6.5-1.1 1-1.1.6 0 1 .2 1 .4zm157.9 3c-.3.3-1.1-.5-1.8-1.7-1.3-2.1-1.2-2.1.5-.5 1 1 1.6 2 1.3 2.2zM93.7 350c-2 2.7-4.6 4.2-3.2 2.1.3-.5.1-1.2-.4-1.6-1.4-.8-.2-3.3 1.7-3.8 3.6-.7 4.2.4 1.9 3.3zm258.8.2c.5-.4.4-.1 0 .7-.6 1.1-.4 1.3 1.1.8 1.6-.6 1.7-.5.4.5-1.9 1.6-2 4-.1 4.6.8.3 1.1 0 .8-.5-.8-1.2 1-3.9 2-3 .4.5.3 1.1-.2 1.5-2 1.4-1.6 3.4.5 2.7 2.2-.7 2.5.1 1 2.5-.7 1.1-1 1.1-1 .2 0-1.5-3.1-1.2-4.2.3-.5.6-.8.4-.9-.5-.3-3-.4-3.5-1-3.5-1.2 0-3.9-2.8-3.9-4.1 0-.8.7-1.4 1.6-1.4.9 0 1.2-.5.8-1.3-.6-.9-.5-.9.8 0 .8.7 1.9.9 2.3.5zm-26.7 1c-.2.7.5 1.3 1.4 1.3.9 0 2 .4 2.4.8.4.4.2.7-.5.7s-3.7 2.5-6.7 5.5c-3 3.1-5.4 5-5.4 4.3 0-.9-.3-.9-1 .2-.6 1-1 1.1-1 .2 0-.6-.5-1.2-1.1-1.2-.5 0-.8.4-.5.9.3.5-.6 1.7-2.1 2.6-2.4 1.6-2.7 1.6-3.8.1-.7-.8-1.6-1.2-2-.8-.4.4-.3-.3.3-1.4.6-1.2.8-2.5.4-2.9-.4-.5-.2-.5.5-.2.6.4 1.4.1 1.7-.5.4-.9.5-.8.5.2-.2 3 .1 4.1 1.1 3.5.5-.3.7-1.3.4-2.3-.5-1.4-.4-1.4.4-.3.9 1.2 1.3 1.2 2.6.2 1.3-1.1 1.9-1.1 3.1-.1 1 .8 1.5.9 1.5.2 0-.6-.8-1.6-1.7-2.1-1-.6-1.3-1.1-.6-1.1.6 0 1.5.4 1.8 1 .3.5 1.3 1 2.1 1s1.4-.5 1.4-1c0-.6-.6-1-1.4-1-2 0-2.9-1.7-1.5-2.6.8-.4.9-.3.5.4s-.1 1.2.8 1.2 1.9 0 2.3.1c.4 0 .9-.5 1.2-1.2.2-.6-.1-.9-.7-.5-.6.3-1.4.1-1.9-.6-1-1.6-1.4-4.2-.5-3.3.4.4.7 1.1.7 1.6s.5.8 1 .6c.6-.1.9-.8.9-1.5-.2-1 .1-1 1.4 0 1.3 1.1 1.5 1 1-.4-.4-.9-.4-1.9-.1-2.2 1-.9 1.3-.7 1.1.6zm-236.8 1c0 .6-.3.8-.7.5-.3-.4-1.2.1-2 1.1-1.3 1.5-1.3 1.5-.3-.6 1.1-2.3 3-3 3-1zm387.5.6c-.3.3-1.1 0-1.8-.7-.9-1-.8-1.1.6-.5 1 .3 1.5.9 1.2 1.2zm-305.8.7c0 .8-.4 1.2-.9.9-.5-.3-.6-1-.3-1.5.9-1.3 1.2-1.1 1.2.6zm194.3.5c0 .5-.5 1-1.1 1-.5 0-.7-.5-.4-1 .3-.6.8-1 1.1-1 .2 0 .4.4.4 1zm107.7.5c0 .8-.4 1.2-.9.9-.5-.3-.6-1-.3-1.5.9-1.3 1.2-1.1 1.2.6zm-6 1c0 .8-.4 1.2-.9.9-.5-.3-.6-1-.3-1.5.9-1.3 1.2-1.1 1.2.6zm-265.4 1c-.3.9-.8 1.4-1 1.1-.3-.3-.2-.9.2-1.5.9-1.6 1.5-1.3.8.4zm87.5-.1c-.7.8-1.5 1.2-1.7 1.1-.5-.6 1-2.5 2-2.5.5 0 .4.6-.3 1.4zm72.6-.2c-.3.4-1.1.5-1.9.1-2.1-.7-1.9-1.2.4-1 1.1 0 1.8.5 1.5.9zm20.7.5c1.3 1.7 1.3 1.7-.6.3-1.1-.8-2.2-1.6-2.4-1.7-.2-.2 0-.3.6-.3s1.7.8 2.4 1.7zm-90 1.6c-.8.8-1.4.7-2.3-.2-1.1-1-.9-1.1.6-.5 1.5.6 1.7.4 1.1-.6-.6-.9-.4-1.1.4-.5.9.5 1 1 .2 1.8zm78.6-.8c0 .8-.4 1.2-.9.9-.5-.3-.6-1-.3-1.5.9-1.3 1.2-1.1 1.2.6zM61.3 359c.4 0 .5-.5.2-1-.3-.6-.4-1-.1-1 1.5 0 1.2 1.9-.6 3.4-1.6 1.4-2 1.5-1.5.3.3-.8.1-2-.4-2.6-.6-.8-.5-.8.3-.1.7.5 1.6 1 2.1 1zm9.4-.5c0 .8-.4 1.2-.9.9-.5-.3-.6-1-.3-1.5.9-1.3 1.2-1.1 1.2.6zm10.3.5c-1.2 2.3-1.6 2.4-2.6.8-.4-.6-.3-.8.3-.5.6.4 1.3 0 1.7-.8.3-.8.8-1.5 1.1-1.5.3 0 .1.9-.5 2zm4-1c0 .5-.2 1-.4 1-.3 0-.8-.5-1.1-1-.3-.6-.1-1 .4-1 .6 0 1.1.4 1.1 1zm89-.6c0 .2-.7.6-1.5 1-.8.3-1.5.1-1.5-.4 0-.6.7-1 1.5-1s1.5.2 1.5.4zm2.3 1.3c-.5 1.2-.3 1.4.7.8.9-.6 1.1-.4.5.4-.5.9-1.1.9-1.7.3-.6-.6-.7-1.5-.4-2.1 1.1-1.7 1.6-1.3.9.6zm122.7 1.8c0 .5-.5.3-1-.5s-1-2-1-2.5c0-.6.5-.3 1 .5s1 1.9 1 2.5zm95.5-2.6c-.9 1.6 1.5 2.3 3.3 1 1.6-1.2 1.6-1.2 0 .6-1.4 1.5-2 1.6-3.2.6-1.4-1.2-1.4-3.1 0-3.1.3 0 .3.4-.1.9zm-196.2 1.6c-.3.9-.8 1.4-1 1.1-.3-.3-.2-.9.2-1.5.9-1.6 1.5-1.3.8.4zm161.9.7c-.7.7-1.2.8-1.2.2 0-1.4 1.2-2.6 1.9-1.9.2.3-.1 1.1-.7 1.7zm105.6-.2c-.7 1-1.4 1.7-1.7 1.5-.4-.4 1.8-3.5 2.5-3.5.2 0-.1.9-.8 2zm-399.9 1.3c0 .9-.2.8-.6-.1-.2-.6-1-.9-1.5-.6-.7.4-.8.2-.4-.5.9-1.3 2.6-.5 2.5 1.2zm10.8-1.7c-.8.8-4.8 1.3-4.3.6.2-.4 1.4-.8 2.6-.9 1.2-.1 2 0 1.7.3zm107.3.4c-1.8 1.2-3 1.3-3 .2 0-.4 1-.9 2.2-.9 1.8-.2 2 0 .8.7zm9.8 1.1c.3 1.1.2 1.1-.7-.1-1-1.3-1.2-1.3-2.1 0-.5.8-1 1-1 .4 0-2.7 3.1-3 3.8-.3zm91.7-.4c.6 1.7.7 1.7 2.1-.2 1.4-1.9 1.4-1.9 1 .5-.4 2.8-2.1 2.8-5.1-.1-1.6-1.6-1.7-1.9-.3-1.9.9 0 1.9.8 2.3 1.7zm11.5.4c0 .5-.8.9-1.7.8-1.1 0-1.3-.3-.5-.6.6-.2.9-1 .6-1.5-.4-.7-.2-.8.4-.4.7.4 1.2 1.1 1.2 1.7zm108.6-.9c.3.4-.1.5-1 .4-.8-.1-1.8-.5-2.2-.8-.3-.4.1-.5 1-.4.8.1 1.8.5 2.2.8zm11.4-.2c0 .5-.4 1-1 1-.5 0-1-.5-1-1 0-.6.5-1 1-1 .6 0 1 .4 1 1zm15.1.7c1.2 1.6 1.2 1.7-.2.6-.9-.7-2-.9-2.4-.5-.5.4-.5.1-.1-.6.9-1.6 1.1-1.5 2.7.5zm39.6-1c-.4.3-.2 1.2.4 1.9.7.8.7 1.4-.1 1.9-.5.3-1-.1-1-1s-.4-1.3-1-1c-.6.3-.7-.1-.4-.9.3-.9 1.1-1.6 1.7-1.6.6 0 .7.3.4.7zm-270.8 3.9c-.5.6-.8 1.3-.6 1.5.1.2-.3-.1-.9-.8-.8-1-1.4-.7-2.4 1.2-1.4 2.6-3.3 3.5-2.4 1.1.3-.9-.2-1.3-1.8-1.2-1.3.1-2.9-.3-3.7-.8-1.2-.9-1.2-.7-.2 1.3 1 1.7 1 2.2.1 1.9-.6-.2-1.1-.8-1.1-1.3 0-.6-.7-2-1.5-3.3-.8-1.2-1-2.2-.4-2.2.5 0 1 .4 1 1 0 .5.7 1 1.5 1s1.5.6 1.5 1.2c0 .9.4.8 1.1-.2.8-1.1 1.2-1.2 1.5-.3.4 1 .8 1 1.9 0 .7-.7 1-1.7.7-2.2-.3-.6.2-.4 1.1.4 1.4 1.1 1.8 1.1 2.3-.2.5-1.3.9-1.4 1.9-.4.8.7 1 1.6.4 2.3zm4.8-.9c-.8 1.7-1.3 2-1.8 1.1-.5-.7-.4-1.5.2-1.7.7-.2.6-.6-.2-1.2-1-.6-.8-.8.7-.7 1.9.2 2 .5 1.1 2.5zm185.8.2c-.3 1.2 0 1.8 1 1.8 1.1 0 1.3-.6.9-2.1s-.3-1.8.4-1.1c.6.5 1.3 2.2 1.6 3.7l.5 2.8-3-1.6c-2.4-1.2-2.9-2-2.3-3.6.4-1.5.3-1.8-.6-1.3-.9.5-1.1.4-.6-.4 1.1-1.7 2.8-.2 2.1 1.8zm19-.8c-.4.5-1.2.9-1.8.8-.9 0-.8-.2.1-.6.6-.2.9-1 .6-1.5-.4-.7-.2-.8.5-.4.6.4.9 1.2.6 1.7zm57.1-.6c-.3 1 .1 1.5 1.1 1.5 1.4 0 1.4.3.5 1.2-1 1-1.5 1-2.1-.1-.9-1.4-.4-4.1.6-4.1.3 0 .3.7-.1 1.5zm-39.8 2c-.3.3-.9-.2-1.2-1.2-.6-1.4-.5-1.5.5-.6.7.7 1 1.5.7 1.8zm14.9-1.9c-.8.8-4.8 1.3-4.3.6.2-.4 1.4-.8 2.6-.9 1.2-.1 2 0 1.7.3zm-9.7 2.1c1-.9 1.1-.9.6 0-.4.7-.2 1.3.3 1.3.6 0 1.1-.5 1.1-1 0-.6.4-1 1-1 .5 0 .1 1.3-.8 3-1.9 3.4-2.8 3.6-5.4 1.4-1.5-1.4-2-1.5-3.5-.3-1.7 1.2-1.7 1.2-.1-.6 1.4-1.5 2-1.6 3.2-.5 1.9 1.5 2 .7.5-2.3-.9-2-.9-2 .4-.5 1.1 1.4 1.6 1.5 2.7.5zm14.5.1c-.3.3-1.1 0-1.8-.7-.9-1-.8-1.1.6-.5 1 .3 1.5.9 1.2 1.2zm7 .2c-1.7 1.8-1.7 2.1-.1 4.5 1.8 2.7.7 3.5-1.4 1-.7-.8-.9-1.5-.5-1.5s.2-.7-.5-1.5c-.9-1.1-.9-1.5-.1-1.5.7 0 .9-.5.5-1.2-.4-.6-.3-.8.4-.4.6.3 1.3.2 1.7-.4.3-.5.9-1 1.2-1 .3 0-.2.9-1.2 2zM321 364c0 .5-.2 1-.4 1-.3 0-.8-.5-1.1-1-.3-.6-.1-1 .4-1 .6 0 1.1.4 1.1 1zm120 1c0 .5-.3 1-.7 1.1-.5 0-1.6.2-2.6.4-.9.2-1.5-.1-1.1-.6.3-.5 1-.7 1.5-.4.5.4.9.1.9-.4 0-.6.5-1.1 1-1.1.6 0 1 .4 1 1z"/><path d="M306 186.4c0 .3.9 1 2 1.6 1.1.6 2 .8 2 .6 0-.3-.9-1-2-1.6-1.1-.6-2-.8-2-.6zM105.5 220c-2 2.2-3 5.4-1.5 4.5.5-.3 1.9-1.9 3-3.5 2.4-3.4 1.3-4.1-1.5-1zM490.5 274.9c-.3.5-.2 1.2.3 1.5.5.3.9-.1.9-.9 0-1.7-.3-1.9-1.2-.6zM417.9 290.7c-1.3 1.6-1.2 1.7.3.5 1.1-.9 1.8-1 2.3-.2.3.6 1.1.7 1.7.4.6-.4.5-1-.3-1.5-2-1.2-2.5-1.1-4 .8zM495.6 297.3c-1.8 1.3-1.8 1.4 0 2.1 1 .4 1.5.4 1.1 0-.4-.4-.2-1.3.4-2.1 1.5-1.7.8-1.7-1.5 0zM495 309.5c-1 1.2-1 1.5.4 1.5.9 0 1.6.5 1.6 1.1 0 .5-.4.8-.9.4-.5-.3-1.2-.1-1.5.4-.6.9 2.9 2.2 3.8 1.4.3-.3 0-1.5-.6-2.7-.7-1.1-1.1-2.4-1-2.9.3-1.1-.5-.8-1.8.8zM91.7 325.2c-1.6 1.2-1.6 1.4.1 2.4 1.5 1 1.8.8 1.8-1.2 0-1.3 0-2.4-.1-2.4s-.9.6-1.8 1.2zM92 339.9c0 .6.4 1.3 1 1.6.6.3.7-.1.4-.9-.7-1.8-1.4-2.1-1.4-.7zM93 347.9c0 .7-.4 1-.9.6-.5-.3-1.2-.1-1.5.4-.4.5-.2 1.2.3 1.5 1.1.7 3.6-2.2 2.7-3.1-.3-.3-.6-.1-.6.6zM349 352c-1.1.7-1.2 1-.2 1 .7 0 1.1.4.8.8-.3.5.1.9.8.9.8 0 1.3-.6 1.2-1.3-.3-2-1-2.4-2.6-1.4zM324.1 354.9c-.8.5-.9 1.1-.3 1.5.5.3 1.2-.1 1.6-.9.6-1.7.6-1.8-1.3-.6zM307 363.7c0 2.2 2.4 3.2 4.4 1.7 1.1-.8 1.5-1.4.9-1.4-.7 0-1.5.5-1.9 1.2-.5.7-1.1.5-2.1-.7-.7-1.1-1.3-1.4-1.3-.8zM195.5 364c-.3.5-.1 1 .4 1 .6 0 1.1-.5 1.1-1 0-.6-.2-1-.4-1-.3 0-.8.4-1.1 1zM432.4 365.8c.3.5 0 1.3-.6 1.5-.9.4-1 .6-.1.6 1.7.1 2.5-1.6 1.2-2.5-.7-.4-.9-.3-.5.4zM75 170.5c.5.7.7 1.5.3 1.8-.3.4-.1.7.5.7s1-.8.9-1.8c0-1-.7-1.9-1.4-1.9-.9 0-1 .4-.3 1.2zM474 170c-.9.6-1 1-.3 1 .6 0 1.5-.5 1.8-1 .8-1.2.4-1.2-1.5 0zM183.6 172.2c.3.5 1 .6 1.5.3 1.3-.9 1.1-1.2-.6-1.2-.8 0-1.2.4-.9.9zM302.2 176.3c1 .8 1.4 1.8 1 2.2-.4.5-.1.5.6.1 1.7-1 1.5-1.4-1-2.6-2.1-1-2.1-1-.6.3zM473.6 175.8c-.2.4.4.9 1.5.9 1.1.1 1.7-.2 1.4-.8-.7-1.1-2.2-1.2-2.9-.1zM479.6 176.2c.3.5 1 .6 1.5.3 1.3-.9 1.1-1.2-.6-1.2-.8 0-1.2.4-.9.9z"/><path d="M300.1 178.2c.7 1.6 1.6 2.8 2.1 2.8s.7.4.4.8c-.3.5.1.9.9.9 1.3 0 4-4.5 3.1-5.4-.2-.2-.7.5-1.1 1.6-.9 2.8-1.9 2.6-4.4-.7l-2.1-2.7 1.1 2.7zM477.5 178c-.4.6-1.6.8-2.8.4-2.1-.6-2.2-.6-.3 1.2 1.3 1.3 2 1.5 2.3.7.3-.8 1.3-.3 2.7 1.4l2.2 2.6 2.8-2.8c1.5-1.5 2.1-2.5 1.3-2.2-.9.3-1.8-.1-2.1-1-.5-1.1-1-1.2-1.9-.4-1 .7-1.7.7-2.4 0-.8-.8-1.3-.7-1.8.1zm4 .9c.6-.8 1-.8 1.6.2.4.8.3 1.9-.3 2.6-.8 1-1.4.9-2.9-.8-2.2-2.6-2.5-3.6-.5-2 1.1.9 1.6.9 2.1 0zM489.4 181.8c.3.5 0 1.3-.6 1.5-.9.4-1 .6-.1.6 1.7.1 2.5-1.6 1.2-2.5-.7-.4-.9-.3-.5.4zM311 186c0 .5.5 1 1 1 .6 0 1-.5 1-1 0-.6-.4-1-1-1-.5 0-1 .4-1 1zM493 186.1c0 .5.5.7 1 .4.6-.3 1-.8 1-1.1 0-.2-.4-.4-1-.4-.5 0-1 .5-1 1.1zM483 187.4c0 .2.7.7 1.6 1 .8.3 1.2.2.9-.4-.6-1-2.5-1.4-2.5-.6zM317.7 190.3c-.3.8-.2 2 .3 2.6.5.9.8.4.8-1.3 0-2.9-.3-3.2-1.1-1.3zM492.6 192.2c.3.4.9.8 1.5.8.5 0 .9-.4.9-.8 0-.5-.7-.9-1.5-.9s-1.2.4-.9.9zM318.2 198.2c-.7.7-1.2 1.7-1.2 2.2 0 .6.5.3 1.1-.7.6-.9 1.5-1.4 2.1-1.1.7.4.8.2.4-.4-.9-1.5-.9-1.5-2.4 0zM491 202c0 .5.5 1 1 1 .6 0 1-.5 1-1 0-.6-.4-1-1-1-.5 0-1 .4-1 1zM495 202.1c0 .5.5.7 1 .4.6-.3 1-.8 1-1.1 0-.2-.4-.4-1-.4-.5 0-1 .5-1 1.1zM489 208.2c0 1.1 1.2 1 3-.2 1.2-.7 1-.9-.8-.7-1.2 0-2.2.5-2.2.9zM473.8 211.6c-.2 1.1-1.3 1.9-2.8 2-1.4.1-3.4.5-4.4 1-1.2.4-1.7.4-1.3-.3.5-.8-3.1-1-4-.3-.2.2-.7.3-1.3.4-.5 0-1.7 1.1-2.5 2.3-1.4 2-1.4 2.2 0 1.7.8-.3 1.5-1.4 1.5-2.3 0-1.4.2-1.4 1-.1.7 1.1 1 1.2 1 .2s.3-1 1.5.2c2 2 1.9 3-.2 2.1-1.5-.5-1.6-.4-.5.6 1.9 2 4-.4 2.2-2.6-.8-.9-.8-1.5-.2-1.5.6 0 1.6.8 2.1 1.7 1 1.7 1 1.7 1.1 0 0-.9.5-1.7 1.1-1.7.5 0 .8.4.5.8-.2.4.4.9 1.5.9 1 .1 1.9-.3 1.9-.8 0-.6.4-.8.9-.5.4.3 1.6-.3 2.5-1.3 1.4-1.6 1.5-2 .2-3-1.1-1-1.5-.9-1.8.5zm2.2.8c0 .2-.8 1-1.7 1.7-1.6 1.3-1.7 1.2-.4-.4 1.3-1.6 2.1-2.1 2.1-1.3zm-4 2.2c0 .8-1.9 1.3-2.4.6-.3-.5.1-.9.9-.9s1.5.2 1.5.3zM435.1 211.9c-1.1.7-1 1.1.7 2 1.1.6 2.8.8 3.7.5 1.4-.6 1.4-.8-.2-2-2.1-1.6-2.4-1.6-4.2-.5zM254.6 213.5c.3.8 1 1.3 1.4 1 .5-.3 1.1-.1 1.5.5.3.5 0 1-.8 1s-1.7.6-2 1.3c-.3.8.1 1.4.9 1.4.7 0 1.1-.3.9-.7-.2-.3.5-1.2 1.7-1.9 1.8-1.1 1.9-1 1.3 1.1-.5 2-.5 2.1.5.5.8-1.3.9-2.2.1-3.1-.6-.7-1-1.5-.8-1.7.1-.2-.2-.1-.7.3-.5.4-1.7.3-2.7-.3-1.5-.7-1.7-.6-1.3.6zM123.7 213.7c-.2.4-.1 1.7.4 2.8.7 1.9.8 1.9.8.1.1-1.9.2-1.9 2.1.2 2.5 2.6 3.2 2.8 2.3.5-.4-1.1-.3-1.4.6-.9.9.6.9.3-.1-1.3-1.4-2.3-2.8-2.8-2.8-1 0 .8-.4.8-1.4 0-.8-.7-1.6-.8-1.9-.4zM395.5 214c-.4.6-1.3.9-2.1.6-.7-.3-1.6-.1-1.9.4-.4.6 0 1 .7 1 .9 0 .9.3-.2 1-.9.6-1 1-.3 1 .6 0 1.5-.5 1.8-1 .4-.6 1-.8 1.5-.5.4.3 1.1-.2 1.4-1.1.8-2 .1-3-.9-1.4zM230.5 215c.3.5 1.1 1 1.6 1 .6 0 .7-.5.4-1-.3-.6-1.1-1-1.6-1-.6 0-.7.4-.4 1zM483.6 216.7c-.6 1.4-.5 1.5.5.6.7-.7 1-1.5.7-1.8-.3-.3-.9.2-1.2 1.2zM422 217.5c-.9 1-.9 1.5-.1 1.5.6 0 1.1-.5 1.1-1.1 0-.8.4-.8 1.4 0 1.1.9 1.6.9 2.2 0 .4-.8.3-.9-.4-.5s-1.2.2-1.2-.3c0-1.6-1.6-1.3-3 .4zM131.5 217.9c-.3.5-.2 1.2.3 1.5.5.3.9-.1.9-.9 0-1.7-.3-1.9-1.2-.6zM137.5 217.9c-.6 1.1 1.3 2.6 2.2 1.7.4-.3.1-.6-.6-.6s-.9-.5-.6-1c.3-.6.4-1 .1-1-.3 0-.7.4-1.1.9zM251.3 218.5c0 .8.4 1.2.9.9.5-.3.6-1 .3-1.5-.9-1.3-1.2-1.1-1.2.6zM451.6 218.7c-.4.9-.3 2 .1 2.4.4.4.9-.3.9-1.7.2-2.8-.1-3.1-1-.7zM473 217.5c.5 2.2-.1 2.5-2.2 1.4-1.7-.8-2-.8-1.2 0 1.7 1.8 5.2 2.2 5 .6-.1-.8-.6-1.8-1-2.2-.4-.4-.7-.4-.6.2zM429.5 219c-.4.6-1.1.7-1.7.4-.7-.4-.8-.2-.4.5.6.9 1.1.9 2.2 0 1.4-1.1 1.8-1.9 1-1.9-.3 0-.8.5-1.1 1zM123.6 219.9c.8.8 4.3.8 3.8 0-.2-.4-1.3-.7-2.4-.6-1 .1-1.7.3-1.4.6zM445.6 220.7c-.6 1.4-.5 1.5.5.6.7-.7 1-1.5.7-1.8-.3-.3-.9.2-1.2 1.2zM454.9 220.3c.6.8.7 1.8.3 2.2-.4.5-.1.5.6.1 1-.6 1-1.1.1-2.2-.6-.8-1.4-1.4-1.6-1.4-.3 0 0 .6.6 1.3zM465.9 220.7c-1.3 1.6-1.2 1.7.4.4 1.6-1.3 2.1-2.1 1.3-2.1-.2 0-1 .8-1.7 1.7zM214.9 221.1c-.6.3-.5 1 .4 1.7 1.1.9 1.8.8 3-.6 1.5-1.6 1.5-1.8-.4-1.8-1.1 0-2.4.3-3 .7zM232 222c-.9.6-1 1-.3 1 .6 0 1.5-.5 1.8-1 .8-1.2.4-1.2-1.5 0zM394 221.4c0 .2.9.6 2 .9 1.1.3 1.8.1 1.4-.4-.5-.9-3.4-1.3-3.4-.5zM407.6 222.2c.3.4 1.1.5 1.9.1 2.1-.7 1.9-1.2-.4-1-1.1 0-1.8.5-1.5.9zM415 221.4c0 .2.7.7 1.6 1 .8.3 1.2.2.9-.4-.6-1-2.5-1.4-2.5-.6zM227.2 222.9c-1.1.7-1.1.9 0 1.4.9.3 1.5-.1 1.5-.9s-.1-1.4-.1-1.4c-.1 0-.7.4-1.4.9zM111.3 225.5c0 .8.4 1.2.9.9.5-.3.6-1 .3-1.5-.9-1.3-1.2-1.1-1.2.6zM94.6 230.7c-.4.9-.2 2 .5 2.3.8.6.8.9 0 1.4-1.8 1.1-1.3 2.6 1 2.6 1.3 0 1.8.4 1.3 1.2-.4.7-.3.9.1.5.5-.4 1-1.4 1.1-2.3.2-1.1-.3-1.3-1.9-.8-1.9.6-2 .5-.8-.9.7-.9 1.7-1.4 2.2-1.1.5.3 1.9-.2 3.1-1 1.2-.9 1.7-1.6 1.1-1.6-.7 0-1.5.4-1.8 1-.3.5-1.1 1-1.7 1-.6 0-.8-.3-.5-.7.7-.7-1.1-3.3-2.3-3.3-.4 0-1.1.8-1.4 1.7zm2.8 1.4c-.3.5-1 .7-1.5.3-.5-.3-.7-1-.3-1.5.3-.5 1-.7 1.5-.3.5.3.7 1 .3 1.5zM391 230c0 .5.5 1 1.1 1 .5 0 .7-.5.4-1-.3-.6-.8-1-1.1-1-.2 0-.4.4-.4 1zM101.6 234.7c-.6 1.4-.5 1.5.5.6.7-.7 1-1.5.7-1.8-.3-.3-.9.2-1.2 1.2zM208.5 235c-.4.6-.2 1.7.5 2.5.8.9.8 1.5 0 2-.6.3-.7 1.2-.3 1.8 1.1 1.7 1.1 5.7.1 6.3-.4.3-.3 1.5.3 2.6 1.1 2.1 1.2 2.1 2.5.3.8-1.1 1-2.3.5-2.9-1.5-1.8-1.3-3 .6-3.7 1.5-.6 1.5-.8.2-.8-2-.1-2.1-5.1-.1-5.1.7 0 1 .5.6 1.2s-.3.8.5.4c1.7-1.1.2-2.9-2-2.3-1.2.3-1.9 0-1.9-.9 0-.8.7-1.1 1.8-.8 1.4.5 1.5.4.2-.5-1.9-1.4-2.7-1.4-3.5-.1zm2.5 5c0 .5-.5 1-1.1 1-.5 0-.7-.5-.4-1 .3-.6.8-1 1.1-1 .2 0 .4.4.4 1zm.3 9.6c-.4 1.2-.8 1.3-1.4.3-.9-1.5-.2-3.2 1.1-2.4.5.3.6 1.3.3 2.1zM216.6 237.8c-.3.5.1.9.9.9s1.2-.4.9-.9c-.3-.4-.7-.8-.9-.8-.2 0-.6.4-.9.8zM469 246c0 .5.5 1 1.1 1 .5 0 .7-.5.4-1-.3-.6-.8-1-1.1-1-.2 0-.4.4-.4 1zM92.6 248.9c-.4.5-.2 1.2.4 1.6.6.4.8 1 .5 1.5-.6.9 2.5 2.3 3.3 1.5.3-.3 0-.5-.6-.5-.7 0-1.2-.5-1.2-1 0-.6.3-.9.8-.8.4.2.8-.2 1-.7.1-.6-.1-1-.5-1-.5 0-1.3-.4-2-.8-.6-.4-1.4-.3-1.7.2zM102.7 250.1c.7.7 1.5 1 1.8.7.3-.3-.2-.9-1.2-1.2-1.4-.6-1.5-.5-.6.5zM212.8 251.5c-.6 1.3-1.4 2.3-1.7 2-.4-.2-1.2.5-1.9 1.6s-.8 1.9-.2 1.9c.5 0 1 .5 1 1.1 0 .5-.6.7-1.2.3-1-.5-1-.4-.1.6.8.9.9 1.9.3 3.1-.7 1.1-.7 2-.1 2.4.6.3.8 1.9.6 3.5-.2 1.7 0 2.8.6 2.5 1.7-1.1.9.8-1.3 3.3-1.3 1.4-1.8 2.2-1.2 1.9 1.4-.8 2.7 2 1.4 2.8-.6.4-1 1.2-1 1.8 0 .7.7.4 1.4-.6 1.2-1.5 1.5-1.5 2.6-.2.7.8 1.7 1.5 2.3 1.5.5 0-.2-1-1.6-2.3-2.6-2.2-3.5-3.8-1.9-3.6 2.7.5 3.5-.2 1.7-1.4-1.4-1.1-1.5-1.6-.5-2.2 1-.6.9-.9-.1-1.7-1-.7-.9-.9.7-.5 1.2.2 2.1-.1 2.1-.8 0-1-.7-1.1-2.4-.4-1.4.5-2.3.5-2.3-.1s.8-1 1.8-1c1.4 0 1.4-.2.3-.9-.8-.5-1.6-2-1.7-3.3l-.3-2.3 1.1 2.2c1.2 2.6 3.5 3.7 3.5 1.8 0-.8-.3-1.4-.6-1.3-1.9.2-2.2-.4-1.1-1.7 1.1-1.3 1-1.4-.3-.9-1.1.4-1.4 0-1.2-1.3.2-1 .4-2 .6-2.3.1-.3.3-1 .4-1.5 0-.6.5-2 .9-3.3.7-2 1-2.1 2.4-1 1.5 1.2 1.6 1.1.3-.5-1.7-2.2-1.9-2.2-3.3.8zm-.8 4.5c0 .5-.4 1-1 1-.5 0-1-.5-1-1 0-.6.5-1 1-1 .6 0 1 .4 1 1zm-.6 17.8c.3.5-.1.9-.9.9s-1.2-.4-.9-.9c.3-.4.7-.8.9-.8.2 0 .6.4.9.8zM475 254c0 .5.5 1 1 1 .6 0 .9.6.8 1.2-.2.7.3 1.2 1 1 1-.2 1.7 1.1 1 2.2-.7.8 6.7 6.1 8.1 5.7 1.2-.2 1.2.2-.4 2-1.1 1.3-1.3 1.8-.4 1.2 1.2-1 1.8-1 2.7-.1.9.9 1.2.9 1.2 0 0-.7-.4-1.2-.9-1.2-.6 0-.8-.9-.6-2.1.3-1.4 0-1.9-.9-1.6-2.2.9-2.7-.5-.8-2 1.5-1.3 1.5-1.3-.5-.4-1.4.7-2.4.8-2.8.1-.3-.5.2-1 1.2-1.1 1.4 0 1.5-.2.3-.6-2.2-.9-3-2.5-2.5-4.8.4-1.7.3-1.6-.6.2-1.5 2.8-2.5 2.9-4.1.3-1.4-2.1-2.8-2.7-2.8-1zm7.4 5.4c.1.8.9 2.3 1.7 3.4.7 1 .1.5-1.4-1-1.5-1.6-2.5-3.4-2.1-3.9.7-1.2 1.5-.6 1.8 1.5z"/><path d="M478.6 254.2c.3.5 1 .6 1.5.3 1.3-.9 1.1-1.2-.6-1.2-.8 0-1.2.4-.9.9zM213.3 258.4c-.3.5-.1.6.5.2.5-.3 1.2-.1 1.4.5.2.7.8.7 1.5-.3 1-1.1.8-1.4-.8-1.4-1.1 0-2.3.5-2.6 1zM489.5 260.9c-.3.5-.2 1.2.3 1.5.5.3.9-.1.9-.9 0-1.7-.3-1.9-1.2-.6zM328.8 262.2c1.4 1.7.1 3.5-1.8 2.3-.5-.3-1-.4-1-.1 0 .3 1.4 1.3 3 2.1 1.7.9 2.8 2 2.5 2.5-.9 1.4-2.5 1.2-2.2-.2.1-.6-.7-1.4-1.8-1.6-1.7-.4-1.8-.2-.6 1.2.7.9 1 1.6.5 1.6-.4 0-.3.5.4 1.2.9.9.8 1.6-.5 3-1.9 2.1-1 3.6 1.1 1.9 1.1-1 1.6-.9 2.4.5.8 1.5.9 1.5 1.5 0 .5-1.2.3-1.5-.5-1-.7.5-.9.2-.5-.9.4-1.2.2-1.4-1-1-1.4.5-1.3.1.4-2.3 1.8-2.6 1.9-3.2.7-4.8-.7-1-1.1-2.2-.9-2.6.3-.4-.3-1.4-1.3-2.1-1.5-1.3-1.6-1.2-.4.3zM493 264.1c0 .5.5.7 1 .4.6-.3 1-.8 1-1.1 0-.2-.4-.4-1-.4-.5 0-1 .5-1 1.1zM495.3 267.7c.4.3.1 1.3-.6 2.2-1.1 1.4-1 1.4.5.2 1.6-1.2 1.6-3.1.1-3.1-.4 0-.3.3 0 .7zM90.5 270c-.3.5-.2 1 .4 1 .5 0 1.3-.5 1.6-1 .3-.6.2-1-.4-1-.5 0-1.3.4-1.6 1zM97.5 270c-.3.5-.1 1 .4 1 .6 0 1.1-.5 1.1-1 0-.6-.2-1-.4-1-.3 0-.8.4-1.1 1zM333.3 270.5c-.2.8-.3 2 0 2.7.3.7.6.3.6-.9.1-1.6.6-2 2.1-1.6 1.1.3 2 .3 2 0 0-1.2-4.2-1.4-4.7-.2zM213.6 271.8c-.3.5.1.9.9.9s1.2-.4.9-.9c-.3-.4-.7-.8-.9-.8-.2 0-.6.4-.9.8zM339 272c0 .5.5 1 1.1 1 .5 0 .7-.5.4-1-.3-.6-.8-1-1.1-1-.2 0-.4.4-.4 1zM487.6 272.2c.3.5 1 .6 1.5.3 1.3-.9 1.1-1.2-.6-1.2-.8 0-1.2.4-.9.9zM496.6 271.8c-.3.5.1.9.9.9s1.2-.4.9-.9c-.3-.4-.7-.8-.9-.8-.2 0-.6.4-.9.8zM335 274c0 .5.5 1 1.1 1 .5 0 .7-.5.4-1-.3-.6-.8-1-1.1-1-.2 0-.4.4-.4 1zM341.5 273.9c-.3.5 0 1.3.6 1.7.8.4.9.3.5-.4-1.1-1.9.5-1.4 2.1.5 1.3 1.6 1.3 1.6.3-.5-1.1-2.3-2.5-2.8-3.5-1.3zM500.5 276c1 1.1 2 2 2.3 2 .3 0-.3-.9-1.3-2s-2-2-2.3-2c-.3 0 .3.9 1.3 2zM97.6 275.8c-.3.5.1.9.9.9s1.2-.4.9-.9c-.3-.4-.7-.8-.9-.8-.2 0-.6.4-.9.8zM217 276c0 .5.5 1 1.1 1 .5 0 .7-.5.4-1-.3-.6-.8-1-1.1-1-.2 0-.4.4-.4 1zM338.7 276.1c.7.7 1.5 1 1.8.7.3-.3-.2-.9-1.2-1.2-1.4-.6-1.5-.5-.6.5zM347 275.7c0 .5.9 1.4 2 2.1 1.2.7 1.8 1.7 1.4 2.3-.4.7.2.7 1.6-.1 2.3-1.2 1.7-2.9-1.1-3.3-.8-.2-2-.6-2.6-1-.7-.5-1.3-.4-1.3 0zm5.5 3.1c-.3.3-1.1 0-1.8-.7-.9-1-.8-1.1.6-.5 1 .3 1.5.9 1.2 1.2z"/><path d="M328.5 278c-.3.5-.3 1 .2 1 .4 0 .1.5-.7 1-1.3.8-1.3 1-.1 1 1.1 0 1 .4-.4 1.3-1.8 1.4-1.3 3.8.8 3.6.9 0 .9-.2 0-.6-.7-.2-1.3-.9-1.3-1.4 0-.6.5-.7 1-.4.6.3 1 .1 1-.5s.5-.8 1.3-.4c.7.5.6 0-.3-1.1-1.4-1.7-1.3-1.8.2-1.2 1 .3 2 .2 2.3-.4.4-.5.3-.9-.2-.8-2 .3-3.4-.2-2.8-1.1.3-.6.4-1 .1-1-.3 0-.8.4-1.1 1zM339.6 279.3c.3 1 .9 1.5 1.2 1.2.3-.3 0-1.1-.7-1.8-1-.9-1.1-.8-.5.6zM347.7 280c.3 1.1.9 2.2 1.3 2.5.5.3.6-.4.3-1.5s-.9-2.2-1.3-2.5c-.5-.3-.6.4-.3 1.5zM345.4 280.4c.1.8.5 1.8.8 2.2.4.3.5-.1.4-1-.1-.8-.5-1.8-.8-2.2-.4-.3-.5.1-.4 1zM495.5 280c-.3.5-.1 1 .4 1 .6 0 1.1-.5 1.1-1 0-.6-.2-1-.4-1-.3 0-.8.4-1.1 1zM97.4 282.2c-.4.7-.3 1 .1.5.5-.4 1.8.1 2.9 1 2.1 1.8 2.1 1.8.2-.5-2.2-2.6-2.3-2.6-3.2-1zM332.4 282.1c-.3.6-.2 1.5.3 2s.9.1.9-1.1c0-2.3-.2-2.4-1.2-.9zM499 286c0 .5.5 1 1 1 .6 0 1-.5 1-1 0-.6-.4-1-1-1-.5 0-1 .4-1 1zM333.4 288c0 1.3.4 1.6 1 1 .7-.7.7-1.3 0-2-.6-.6-1-.3-1 1zM207.5 288c-.3.5-.1 1 .4 1 .6 0 1.1-.5 1.1-1 0-.6-.2-1-.4-1-.3 0-.8.4-1.1 1zM99 290.1c0 .5.5.7 1 .4.6-.3 1-.8 1-1.1 0-.2-.4-.4-1-.4-.5 0-1 .5-1 1.1zM353.6 290.7c-.6 1.4-.5 1.5.5.6.7-.7 1-1.5.7-1.8-.3-.3-.9.2-1.2 1.2zM498.1 289.9c-.8.5-1.6 1.7-1.7 2.6-.2 1.2.1 1.4 1.1.5 1-.8 1.4-.8 1.7.2.3.8.7.6 1.1-.6.5-1.1.3-1.5-.5-1s-.9.2-.5-.9c.7-2 .7-2-1.2-.8zM93.5 291c-.4.6-1.2.7-1.8.3-.8-.4-.8-.1.1.9.7.9 1.1 2 1 2.6-.2.5-.1 1 .2.9.3 0 1.6.5 3 1.2l2.5 1.2-2.5-2c-1.6-1.4-1.8-1.9-.7-1.5 1 .4 1.7.1 1.7-.6 0-.6-.5-.8-1.2-.4-.8.5-.9.2-.5-.9.7-1.8-.8-3.3-1.8-1.7zM97 290.9c0 .6.4 1.3 1 1.6.6.3.7-.1.4-.9-.7-1.8-1.4-2.1-1.4-.7zM369.4 291.1c-.4.7-.3.9.4.5.5-.3 1.3 0 1.5.6.4.9.6 1 .6.1.1-1.7-1.6-2.5-2.5-1.2zM429.4 292c0 1.3.4 1.6 1 1 .7-.7.7-1.3 0-2-.6-.6-1-.3-1 1zM392.4 291.8c-1.1.7-1.3 5.6-.3 6.7.3.3.5-.7.4-2.2-.1-1.6.2-3.4.8-4.1 1.1-1.4.7-1.5-.9-.4zM367.3 293.3c0 .7.9 1.4 2 1.4 1.1.1 1.8.1 1.6 0-.2-.2-1.1-.8-2-1.5-1.2-.9-1.6-.9-1.6.1zM375.5 293c-.3.6.1.7.9.4 1.8-.7 2.1-1.4.7-1.4-.6 0-1.3.4-1.6 1zM501.5 294c.3.5.8 1 1.1 1 .2 0 .4-.5.4-1 0-.6-.5-1-1.1-1-.5 0-.7.4-.4 1zM103 294.4c0 .2.8 1 1.8 1.7 1.5 1.3 1.6 1.2.3-.4s-2.1-2.1-2.1-1.3zM98.6 296.2c.3.5 1 .6 1.5.3 1.3-.9 1.1-1.2-.6-1.2-.8 0-1.2.4-.9.9zM382.9 296.3c.6.8.7 1.8.3 2.2-.4.5-.1.5.6.1 1-.6 1-1.1.1-2.2-.6-.8-1.4-1.4-1.6-1.4-.3 0 0 .6.6 1.3zM385.5 296c.3.5.8 1 1.1 1 .2 0 .4-.5.4-1 0-.6-.5-1-1.1-1-.5 0-.7.4-.4 1zM405.5 296c.3.5.8 1 1.1 1 .2 0 .4-.5.4-1 0-.6-.5-1-1.1-1-.5 0-.7.4-.4 1zM213.4 298.3c-.4.7-.4.9.1.5.4-.4 1.3 0 2 .8 1.1 1.5 1.2 1.5 1.2.1 0-2-2.4-3-3.3-1.4zM332.3 297.7c-1.6.6-1.7 2.9-.1 3.9.7.4.8.3.4-.5-.4-.6-.2-1.8.4-2.6 1.3-1.6 1.2-1.6-.7-.8zM336 298c-.9.6-1 1-.3 1 .6 0 1.5-.5 1.8-1 .8-1.2.4-1.2-1.5 0zM501.6 297.8c-.3.5.1.9.9.9s1.2-.4.9-.9c-.3-.4-.7-.8-.9-.8-.2 0-.6.4-.9.8zM93.5 299.1c-.4.5-1.2.6-1.8.2-.7-.4-.6 0 .2 1 1.1 1.4 1.1 2 .1 3.2-1 1.2-1 1.5.1 1.6.8 0 2.2.2 3.2.4 1.5.3 1.6.1.6-1.1-.6-.7-1.6-1.1-2.2-.7-.6.3-.7.1-.3-.5.5-.9 1.3-.9 2.9 0 2.8 1.5 4.9 1.9 4.1.7-.3-.5-1-.7-1.5-.4-.5.4-1.2-.1-1.5-.9-.3-.9-1-1.3-1.5-1-.5.3-.9.1-.9-.5 0-.5.5-1.1 1.2-1.3.8-.3.6-.7-.5-1.1-.9-.3-1.9-.2-2.2.4zM426.7 300.1c.7.7 1.5 1 1.8.7.3-.3-.2-.9-1.2-1.2-1.4-.6-1.5-.5-.6.5zM501 300.9c0 .6.4 1.3 1 1.6.6.3.7-.1.4-.9-.7-1.8-1.4-2.1-1.4-.7zM383.6 302.2c.3.5 1 .6 1.5.3 1.3-.9 1.1-1.2-.6-1.2-.8 0-1.2.4-.9.9zM335 303.4c0 .2.7.7 1.6 1 .8.3 1.2.2.9-.4-.6-1-2.5-1.4-2.5-.6zM501.4 306.2c-.4.5-.3 1.2 0 1.5.3.4.6.1.6-.6s.4-1 .9-.6c.5.3 1.2.2 1.5-.3.3-.5-.2-.9-1-.9s-1.7.4-2 .9zM99 310c0 .5.5 1 1.1 1 .5 0 .7-.5.4-1-.3-.6-.8-1-1.1-1-.2 0-.4.4-.4 1zM91.5 312c.3.5.8 1 1.1 1 .2 0 .4-.5.4-1 0-.6-.5-1-1.1-1-.5 0-.7.4-.4 1zM325.1 312.8c-1 2-.6 3.2 1.2 3.2.6 0 .7-.3.4-.7-.4-.3-.2-1.2.4-1.9.6-.8.7-1.4 0-1.8-.6-.4-1.5.2-2 1.2zM213.5 313.9c-.4.7.1.8 1.2.4 1.5-.6 1.6-.4.6.8-1 1.3-1 1.6.1 1.6 1.6 0 1.5-2.9-.1-3.4-.6-.2-1.4.1-1.8.6zM97.4 316.1c-.3.6-.1 1.6.5 2.2.9.9 1 .7.5-.7-.6-1.5-.4-1.7.6-1.1.9.5 1.1.4.6-.3-.9-1.5-1.3-1.5-2.2-.1zM501.5 316c.3.5.8 1 1.1 1 .2 0 .4-.5.4-1 0-.6-.5-1-1.1-1-.5 0-.7.4-.4 1zM93 318.4c.6.6.6 1.4-.2 2.3-.8 1-.7 1.2.5.8 2.3-.9 2.8-4.1.6-4.1-1.2 0-1.5.4-.9 1zM101 317.9c0 .6.4 1.3 1 1.6.6.3.7-.1.4-.9-.7-1.8-1.4-2.1-1.4-.7zM213.9 319.2c-.5 1.8-.6 3.8-.1 3.4.7-.8 1.2-3.6.6-3.6-.2 0-.4.1-.5.2zM501.4 320.2c-.4.5-.3 1.2 0 1.5.3.4.6.1.6-.6s.4-1 .9-.6c.5.3 1.2.2 1.5-.3.3-.5-.2-.9-1-.9s-1.7.4-2 .9zM497.9 322.1c-.6 3-.5 3.6.7 3.6.7 0 1.1-.4.8-.9-.3-.4-.1-.8.5-.8.5 0 1.5.8 2.1 1.7.6 1 1 1.2.8.4-.4-1.3-4.7-4.8-4.9-4zM503.6 323.3c.3 1 .9 1.5 1.2 1.2.3-.3 0-1.1-.7-1.8-1-.9-1.1-.8-.5.6zM99.6 324.5c-.3.9-1.1 1.3-1.7.9-.8-.5-.9-.3-.4.5.6 1 1.1.9 2.3-.3.9-.8 1.3-1.8 1-2.1-.3-.3-.8.1-1.2 1zM99 329.1c-2.2 1.8-2.2 1.9-.3 1 1.2-.6 2.5-1.6 2.8-2.1.9-1.5.3-1.2-2.5 1.1zM213.4 328.1c-.3.6-.1 1.6.5 2.2.9.9 1 .7.5-.7-.6-1.5-.4-1.7.6-1.1.9.5 1.1.4.6-.3-.9-1.5-1.3-1.5-2.2-.1zM325.5 327.9c-.3.5-.2 1.2.3 1.5.5.3.9-.1.9-.9 0-1.7-.3-1.9-1.2-.6zM500.7 328.1c.7.7 1.5 1 1.8.7.3-.3-.2-.9-1.2-1.2-1.4-.6-1.5-.5-.6.5zM501.3 331.5c0 .8.4 1.2.9.9.5-.3.6-1 .3-1.5-.9-1.3-1.2-1.1-1.2.6zM217 332c0 .5.5 1 1.1 1 .5 0 .7-.5.4-1-.3-.6-.8-1-1.1-1-.2 0-.4.4-.4 1zM501.6 335.3c.3 1 .9 1.5 1.2 1.2.3-.3 0-1.1-.7-1.8-1-.9-1.1-.8-.5.6zM99.1 337.3c-.8 1-.7 1.4.2 1.4.8 0 1.4-.6 1.4-1.4 0-.7-.1-1.3-.2-1.3-.2 0-.8.6-1.4 1.3zM213.5 338c-.3.6.1.7.9.4 1.8-.7 2.1-1.4.7-1.4-.6 0-1.3.4-1.6 1zM324.5 341c-.4.6 0 1.9.9 2.9s1.4 2 1.1 2.3c-.3.3.1 1.1 1 1.8s1.5.8 1.5.2c0-.6-.6-1.3-1.2-1.6-.7-.3-.3-.3 1 0 1.2.3 2.2.1 2.2-.5s-.3-1-.7-1c-2.3.4-3.5-.3-3-1.5.7-1.9-1.8-4.2-2.8-2.6zM97.6 344.2c.3.5 1 .6 1.5.3 1.3-.9 1.1-1.2-.6-1.2-.8 0-1.2.4-.9.9zM213.2 343.9c-1.1.7-1.1.9 0 1.4.9.3 1.5-.1 1.5-.9s-.1-1.4-.1-1.4c-.1 0-.7.4-1.4.9zM495 345.2c-1.2 2.2-1.2 2.2.6.6 1-1 1.5-2 1.2-2.4-.4-.3-1.2.5-1.8 1.8zM206 351c-1.5 2.1-1.8 3.4-1.2 4.6.6 1.1 1.1 1.3 1.6.5.4-.6.2-1.1-.5-1.1-1 0-1-.3-.1-1.2 1.7-1.7 4.4-1.9 5.6-.3.8 1.1 1.5 1.2 2.6.4 1.3-.9 1.2-1-.2-.5-1 .3-1.8.3-1.8-.1 0-.3.8-1.2 1.8-2 1.6-1.3 1.5-1.3-.3-.4-2.3 1-5.9-.4-5-2 1.4-2.2-.6-.6-2.5 2.1zM332.1 351.6c0 1.1.3 1.4.6.6.3-.7.2-1.6-.1-1.9-.3-.4-.6.2-.5 1.3zM339.3 353.3c0 .8.6 1.4 1.4 1.4.9 0 1-.4.2-1.4-.6-.7-1.2-1.3-1.4-1.3-.1 0-.2.6-.2 1.3zM42.5 354c-.3.6.1.7.9.4 1.8-.7 2.1-1.4.7-1.4-.6 0-1.3.4-1.6 1zM162.7 354.3c.3.5-.4.6-1.8.2l-2.4-.7 2.3 2c1.6 1.4 1.9 2.2 1 2.5-.7.3-.8.6-.2.6.5.1 1.9-.6 3-1.4 1.6-1.3 1.6-1.4.2-.9-2 .7-2.4-.6-.8-2.2.7-.7.6-1.1-.4-1.1-.8 0-1.3.5-.9 1zM493 354.1c0 .5.5.7 1 .4.6-.3 1-.8 1-1.1 0-.2-.4-.4-1-.4-.5 0-1 .5-1 1.1zM280.5 355.1c-1.4.5-1.5.8-.5.9 1 .1.9.4-.5 1-1.8.8-1.8.9-.2.9 1 .1 2-.6 2.4-1.5.4-1.2.7-1.3 1.4-.3.4.8 1.1 1.1 1.4.8 1.1-1.2-2-2.6-4-1.8zM89 356.1c0 .5-.6.7-1.2.3-1-.6-1-.4 0 .8 1 1.2 1 1.7.1 2-.8.3-.5 1.6.9 4.3 1.2 2.2 2.1 3.6 2.2 3.2 0-.4-.7-2.1-1.5-3.6-.8-1.6-1.1-3.1-.8-3.5.4-.4 1.2.3 1.9 1.5l1.2 2.2.7-2.3c.5-1.6.3-2.6-.9-3.2-.9-.5-1.4-1.3-1.1-1.9.4-.5.1-.9-.4-.9-.6 0-1.1.5-1.1 1.1zm2.9 4.3c-.3.3-1.1-.5-1.8-1.7-1.3-2.1-1.2-2.1.5-.5 1 1 1.6 2 1.3 2.2zM94.6 356.7c-.6 1.4-.5 1.5.5.6.7-.7 1-1.5.7-1.8-.3-.3-.9.2-1.2 1.2zM165.5 358.5c-1 1.3-2.4 2.1-2.9 1.8-.5-.3-.6-.1-.2.6.4.6 1.1.9 1.6.6.4-.3 1.3.2 2 1s1.6 1.3 2 1c.4-.3 1 .1 1.3.9.3.8-.1 1.7-.9 2-1.7.6-1.9 2.6-.2 2.6.6 0 .9-.3.5-.6-.3-.4.3-1.4 1.5-2.4 2.1-1.7 2.1-1.7.2-4.3-1.1-1.5-2.5-2.4-3.4-2.2-1.1.4-1 .1.3-.9.9-.7 1.7-1.6 1.7-2 0-1.3-1.6-.4-3.5 1.9zm4.3 3.8c.6.5 1.2 1.5 1.2 2.1 0 .6-.5.3-1.1-.7-.6-.9-1.4-1.5-1.8-1.2-.5.2-1.4-.2-2.1-1-1.1-1.3-1-1.4.6-.9 1 .4 2.5 1.1 3.2 1.7zM329.6 357.9c-.4.5.3.7 1.4.4 2.3-.6 2.6-1.3.6-1.3-.8 0-1.7.4-2 .9zM211.1 358.7c-.1 1.7 1.6 2.5 2.5 1.2.4-.7.3-.9-.4-.5-.5.3-1.3 0-1.5-.6-.4-.9-.6-1-.6-.1zM95.9 360.7c-1.3 1.6-1.2 1.7.4.4.9-.7 1.7-1.5 1.7-1.7 0-.8-.8-.3-2.1 1.3zM277.5 360c-.3.5-.1 1 .4 1 .6 0 1.1-.5 1.1-1 0-.6-.2-1-.4-1-.3 0-.8.4-1.1 1zM330 360c-.9.6-1 1-.3 1 .6 0 1.5-.5 1.8-1 .8-1.2.4-1.2-1.5 0zM367 359.9c0 .5.5 1.3 1 1.6.6.3 1 .2 1-.4 0-.5-.4-1.3-1-1.6-.5-.3-1-.2-1 .4zM159.5 360.9c-.3.5-.2 1.2.3 1.5.5.3.9-.1.9-.9 0-1.7-.3-1.9-1.2-.6zM485.5 360.9c-.3.5-.2 1.2.3 1.5.5.3.9-.1.9-.9 0-1.7-.3-1.9-1.2-.6zM76 363.2c0 .6.3.8.7.5.3-.4 1.3-.1 2.2.6 1.4 1.1 1.4 1 .2-.6-1.5-2-3.1-2.2-3.1-.5zM92.6 363.7c-.6 1.4-.5 1.5.5.6.7-.7 1-1.5.7-1.8-.3-.3-.9.2-1.2 1.2zM279.5 363c-.4.6-1.2.7-1.8.4-.7-.4-.8-.3-.4.1 1.3 1.5 3.4 1.4 3.4-.1 0-1.7-.4-1.8-1.2-.4zM298.7 363.2c-1.4.8-1.6 1.3-.6 2.4.8 1 .8 1.4 0 1.4-.6 0-1.1.8-1.1 1.7.1 1.7.1 1.7 1.1 0 .8-1.4 1.4-1.6 2.5-.6.8.7 1.4.7 1.4.1 0-.5-.7-1.3-1.6-1.6-.8-.3-1.2-1.1-.8-1.7.4-.8.9-.7 1.5.2.6 1.1 1.1 1.1 2 .2 1.7-1.7-2-3.5-4.4-2.1zM354.6 363.7c-.6 1.4-.5 1.5.5.6.7-.7 1-1.5.7-1.8-.3-.3-.9.2-1.2 1.2zM372.5 363c-.4.6-1.1.8-1.6.5-.5-.4-.9-.1-.9.4 0 .6.6 1.1 1.4 1.1.8 0 1.6.6 1.9 1.2.2.7.4.1.3-1.4-.1-3.1-.2-3.2-1.1-1.8zM398.1 363.3c-.9 1.1-.5 1.4 2 1.5 1.7 0 2.9 0 2.8-.1-.2-.2-1.1-.8-2-1.5-1.3-1-1.9-1-2.8.1z"/><path d="M162.4 364.2c-.4.7-.3.8.5.4.6-.4 2-.2 2.9.6 1.5 1.2 1.6 1.1.3-.5-1.6-2-2.7-2.2-3.7-.5zM179 364c0 .5.5 1 1 1 .6 0 1-.5 1-1 0-.6-.4-1-1-1-.5 0-1 .4-1 1zM282.1 364.6c0 1.1.3 1.4.6.6.3-.7.2-1.6-.1-1.9-.3-.4-.6.2-.5 1.3zM477 364.2c0 .6.3.8.7.5.3-.4 1.3-.1 2.2.6 1.4 1.1 1.4 1 .2-.6-1.5-2-3.1-2.2-3.1-.5zM413.5 365c-.4.6-1 .8-1.5.5-.4-.3-1.4.3-2.1 1.2-1 1.2-1 1.4-.1.9.7-.4 1.2-.2 1.2.7 0 2 2.9 3 3.6 1.3.3-.9 1.5-1.3 2.9-1 1.5.3 2.5-.2 2.9-1.2.5-1.3.4-1.4-.7-.6-1 .9-1.4.8-1.4-.2 0-.8.7-1.2 1.6-1.1.9.2 2.1.4 2.6.4.7.1.7.4 0 .9-2 1.4-1.4 3.2 1.3 4.6 2.4 1.3 2.9 1.3 2.9.1 0-.8-.4-1.2-.8-1-.4.3-1.4.2-2.3-.1-1.2-.5-1.3-1-.6-2.5.8-1.4.6-2.1-1.1-2.9-2.4-1.4-4.9-.7-4.9 1.4 0 1.2-1.3 1.4-4 .6-.3-.1.4-.5 1.4-.9 1.3-.5 1.6-1 .9-1.4-.7-.4-1.4-.3-1.8.3zm.3 4.6c-.4.3-1.2-.5-1.8-1.8-1.2-2.2-1.2-2.2.6-.6 1 1 1.5 2 1.2 2.4zM462.5 365c-.3.6.1.7.9.4 1.8-.7 2.1-1.4.7-1.4-.6 0-1.3.4-1.6 1zM351.3 366.5c0 .8.4 1.2.9.9.5-.3.6-1 .3-1.5-.9-1.3-1.2-1.1-1.2.6zM87.9 366.2c-.5 1.8-.6 3.8-.1 3.4.7-.8 1.2-3.6.6-3.6-.2 0-.4.1-.5.2zM170.9 367.7c-1.3 1.7-1.3 1.7.6.3 1.1-.8 2.2-1.6 2.4-1.7.2-.2 0-.3-.6-.3s-1.7.8-2.4 1.7zM285.3 367.5c0 .7 1 1 2.4.7 1.3-.2 2.3-.6 2.3-.7 0-.1-1-.5-2.3-.7-1.4-.3-2.4 0-2.4.7zM369.1 367.6c0 1.1.3 1.4.6.6.3-.7.2-1.6-.1-1.9-.3-.4-.6.2-.5 1.3zM374.6 367.7c-.6 1.4-.5 1.5.5.6.7-.7 1-1.5.7-1.8-.3-.3-.9.2-1.2 1.2zM46.5 368c-.3.6.1.7.9.4 1.8-.7 2.1-1.4.7-1.4-.6 0-1.3.4-1.6 1zM50.6 368.2c.3.4.9.8 1.5.8.5 0 .9-.4.9-.8 0-.5-.7-.9-1.5-.9s-1.2.4-.9.9zM163.6 368.2c.3.5 1 .6 1.5.3 1.3-.9 1.1-1.2-.6-1.2-.8 0-1.2.4-.9.9zM276.5 368c-.3.6.1.7.9.4 1.8-.7 2.1-1.4.7-1.4-.6 0-1.3.4-1.6 1zM383.7 367.7c-1.3 1.2-.7 2.3 1.1 2.2 1 0 1.2-.3.4-.6-.6-.2-1-.9-.6-1.4.6-1 0-1.2-.9-.2zM391 368.4c0 .3.9 1 2 1.6 1.1.6 2 .8 2 .6 0-.3-.9-1-2-1.6-1.1-.6-2-.8-2-.6zM67.3 370.5c0 .8.4 1.2.9.9.5-.3.6-1 .3-1.5-.9-1.3-1.2-1.1-1.2.6zM73 370c0 .5.5 1 1.1 1 .5 0 .7-.5.4-1-.3-.6-.8-1-1.1-1-.2 0-.4.4-.4 1zM205.5 370c.3.5.8 1 1.1 1 .2 0 .4-.5.4-1 0-.6-.5-1-1.1-1-.5 0-.7.4-.4 1zM299.3 370.5c0 .8.4 1.2.9.9.5-.3.6-1 .3-1.5-.9-1.3-1.2-1.1-1.2.6zM321 370.1c0 .5.5.7 1 .4.6-.3 1-.8 1-1.1 0-.2-.4-.4-1-.4-.5 0-1 .5-1 1.1zM387.3 370.6c0 .9.4 1.1 1.2.4.7-.5 1.4-.9 1.6-.7.2.1.3 0 .1-.2-.7-1.1-2.9-.7-2.9.5zM397.5 370c-.3.6.1.7.9.4 1.8-.7 2.1-1.4.7-1.4-.6 0-1.3.4-1.6 1zM465.5 370c-.3.5-.1 1 .4 1 .6 0 1.1-.5 1.1-1 0-.6-.2-1-.4-1-.3 0-.8.4-1.1 1zM51.5 371.1c-.4.6-.5 1.2-.2 1.5.2.3.7-.2 1-1.1.7-1.7.1-2-.8-.4zM177.5 371.1c-.4.6-.5 1.2-.2 1.5.2.3.7-.2 1-1.1.7-1.7.1-2-.8-.4zM405 370.3c0 .2.6 1 1.4 1.6 1.1.9 1.6.9 2.2-.1.4-.7.4-1-.1-.6-.4.4-1.4.3-2.2-.3-.7-.6-1.3-.9-1.3-.6zM438.1 372.2c-1.3 2.1-1.3 2.2.2 1 1.8-1.5 4.1-.7 3.1 1-.4.7-.2.8.4.4.9-.5.8-1.2-.1-2.6-1.5-2.5-1.9-2.5-3.6.2zM57.6 372.1c.4.8 3 .6 3.8-.2.3-.3-.5-.5-1.9-.5-1.3 0-2.2.3-1.9.7zM310.5 372.1c-.3.4.2.6 1 .5 2.1-.3 2.8-1.3 1-1.3-.9 0-1.8.4-2 .8zM413 374.1c0 .5.5.7 1 .4.6-.3 1-.8 1-1.1 0-.2-.4-.4-1-.4-.5 0-1 .5-1 1.1zM429.5 374c.3.5.8 1 1.1 1 .2 0 .4-.5.4-1 0-.6-.5-1-1.1-1-.5 0-.7.4-.4 1zM449.5 374c.3.5.8 1 1.1 1 .2 0 .4-.5.4-1 0-.6-.5-1-1.1-1-.5 0-.7.4-.4 1zM191.5 374.9c-.3.5-.2 1.2.3 1.5.5.3.9-.1.9-.9 0-1.7-.3-1.9-1.2-.6zM433.6 376.7c-.6 1.4-.5 1.5.5.6.7-.7 1-1.5.7-1.8-.3-.3-.9.2-1.2 1.2z"/></svg>